<svg xmlns="http://www.w3.org/2000/svg" xmlns:xlink="http://www.w3.org/1999/xlink" width="6144" zoomAndPan="magnify" viewBox="0 0 4608 2879.999992" height="3840" preserveAspectRatio="xMidYMid meet" version="1.0"><defs><clipPath id="7f788ac2f4"><path d="M 3327 466 L 4078.710938 466 L 4078.710938 1218 L 3327 1218 Z M 3327 466 " clip-rule="nonzero"/></clipPath></defs><path fill="#ffd7ef" d="M 1973.5 2880 C 1177.195312 2880 529.339844 2234.015625 529.339844 1440 C 529.339844 645.984375 1177.195312 0 1973.5 0 C 2769.808594 0 3417.664062 645.984375 3417.664062 1440 C 3417.664062 2234.015625 2769.808594 2880 1973.5 2880 Z M 1973.5 2880 " fill-opacity="1" fill-rule="nonzero"/><g clip-path="url(#7f788ac2f4)"><path fill="#ffa9da" d="M 4078.476562 842.183594 C 3761.765625 874.539062 3735.542969 900.761719 3703.191406 1217.503906 C 3670.835938 900.761719 3644.617188 874.539062 3327.902344 842.183594 C 3644.617188 809.828125 3670.835938 783.605469 3703.191406 466.863281 C 3735.542969 783.605469 3761.765625 809.839844 4078.476562 842.183594 Z M 4078.476562 842.183594 " fill-opacity="1" fill-rule="nonzero"/></g><path fill="#ff50ac" d="M 3270.769531 124.890625 C 3252.796875 300.859375 3238.226562 315.433594 3062.273438 333.402344 C 3238.226562 351.375 3252.796875 365.949219 3270.769531 541.914062 C 3288.738281 365.949219 3303.308594 351.375 3479.261719 333.402344 C 3303.308594 315.433594 3288.738281 300.859375 3270.769531 124.890625 Z M 3665.035156 1326.65625 C 3649.785156 1475.984375 3637.417969 1488.355469 3488.101562 1503.605469 C 3637.417969 1518.855469 3649.785156 1531.222656 3665.035156 1680.550781 C 3680.28125 1531.222656 3692.648438 1518.855469 3841.964844 1503.605469 C 3692.648438 1488.339844 3680.28125 1475.984375 3665.035156 1326.65625 Z M 3512.421875 491.671875 C 3505.238281 562.0625 3499.40625 567.894531 3429.023438 575.078125 C 3499.40625 582.265625 3505.238281 588.097656 3512.421875 658.484375 C 3519.605469 588.097656 3525.4375 582.265625 3595.820312 575.078125 C 3525.4375 567.894531 3519.605469 562.0625 3512.421875 491.671875 Z M 3512.421875 491.671875 " fill-opacity="1" fill-rule="nonzero"/><path fill="#ff73c3" d="M 1318.085938 1333.210938 C 1387.285156 1331.699219 1456.5 1330.632812 1525.714844 1329.882812 C 1525.558594 1366.589844 1525.542969 1403.292969 1525.6875 1440 C 1525.542969 1476.707031 1525.558594 1513.410156 1525.714844 1550.117188 C 1456.5 1549.367188 1387.285156 1548.300781 1318.085938 1546.789062 C 1317.726562 1511.195312 1317.609375 1475.597656 1317.695312 1440 C 1317.609375 1404.402344 1317.726562 1368.804688 1318.085938 1333.210938 Z M 1341.082031 813.140625 C 1336.070312 879.96875 1331.722656 946.84375 1327.878906 1013.746094 C 1395.898438 1008.949219 1464.234375 1006.199219 1532.398438 1004.386719 C 1534.628906 935.984375 1537.261719 867.601562 1540.558594 799.230469 C 1474.039062 803.578125 1407.589844 808.429688 1341.082031 813.140625 Z M 1050.097656 1795.894531 C 1045.835938 1727.886719 1041.761719 1659.875 1039.425781 1591.761719 C 987.074219 1589.34375 934.675781 1587.742188 882.351562 1584.734375 C 884.296875 1649.75 886.554688 1714.851562 893.582031 1779.550781 C 945.5625 1786.019531 997.757812 1793 1050.097656 1795.894531 Z M 1540.558594 2080.769531 C 1537.261719 2012.414062 1534.628906 1944.015625 1532.398438 1875.613281 C 1464.234375 1873.800781 1395.882812 1871.050781 1327.878906 1866.253906 C 1331.722656 1933.15625 1336.054688 2000.03125 1341.082031 2066.859375 C 1407.589844 2071.570312 1474.039062 2076.421875 1540.558594 2080.769531 Z M 1540.558594 2080.769531 " fill-opacity="1" fill-rule="nonzero"/><path fill="#ff0092" d="M 769.769531 910.496094 C 809.046875 898.90625 848.34375 887.167969 888.386719 878.414062 C 878.207031 938.160156 868.890625 997.921875 863.691406 1058.34375 C 823.289062 1064.492188 782.941406 1071.390625 743.03125 1080.1875 C 750.71875 1023.480469 758.609375 966.613281 769.769531 910.496094 Z M 611.628906 1440 C 611.828125 1467.1875 612.460938 1494.359375 613.542969 1521.519531 C 641.128906 1524.84375 668.847656 1527.453125 696.578125 1529.335938 C 695.960938 1499.558594 695.789062 1469.78125 695.976562 1440 C 695.789062 1410.222656 695.945312 1380.425781 696.578125 1350.664062 C 668.847656 1352.550781 641.128906 1355.15625 613.542969 1358.480469 C 612.460938 1385.640625 611.84375 1412.8125 611.628906 1440 Z M 663.519531 928.539062 L 663.707031 928.398438 C 676.652344 882.992188 690.332031 838.078125 710.332031 795.195312 C 667.164062 841.867188 645.421875 912.355469 626.71875 971.914062 C 627.867188 969.914062 629.035156 967.910156 630.230469 965.921875 C 638.855469 951.480469 650.34375 938.996094 663.519531 928.539062 Z M 807.824219 697.851562 C 825.003906 656.625 841.402344 614.953125 862.929688 575.796875 C 837.527344 593.09375 814.910156 614.117188 796.304688 638.523438 C 772.347656 673.632812 753.628906 711.761719 736.753906 750.6875 C 758.335938 730.640625 782.308594 712.957031 807.824219 697.851562 Z M 888.386719 2001.585938 C 878.207031 1941.839844 868.890625 1882.078125 863.691406 1821.65625 C 823.289062 1815.507812 782.941406 1808.609375 743.03125 1799.8125 C 750.71875 1856.503906 758.625 1913.371094 769.769531 1969.488281 C 809.046875 1981.09375 848.34375 1992.832031 888.386719 2001.585938 Z M 597.890625 1519.472656 C 597.128906 1492.976562 596.824219 1466.496094 596.898438 1440 C 596.824219 1413.503906 597.128906 1387.007812 597.890625 1360.527344 C 585.074219 1362.183594 572.332031 1364.585938 559.777344 1367.726562 C 558.871094 1368.273438 557.976562 1368.820312 557.085938 1369.367188 C 555.847656 1392.882812 555.039062 1416.441406 554.78125 1440.015625 C 555.039062 1463.574219 555.847656 1487.144531 557.085938 1510.660156 C 557.976562 1511.207031 558.886719 1511.753906 559.777344 1512.304688 C 572.332031 1515.414062 585.074219 1517.816406 597.890625 1519.472656 Z M 591.023438 1713.585938 C 600.554688 1720.179688 616.046875 1725.078125 616.046875 1725.078125 C 616.046875 1725.078125 600.742188 1616.371094 599.433594 1561.492188 C 587.507812 1558.929688 560.929688 1550.21875 559.445312 1549.167969 C 562.972656 1599.582031 568.632812 1649.824219 575.816406 1699.832031 C 579.316406 1703.9375 584.285156 1708.933594 591.023438 1713.585938 Z M 1107.851562 2250.894531 C 1097.066406 2194.230469 1085.75 2137.492188 1078.910156 2080.179688 C 1028.742188 2072.722656 978.421875 2063.460938 929.0625 2051.8125 C 938.808594 2106.230469 948.886719 2160.476562 963.445312 2213.855469 C 1010.601562 2229.351562 1059.371094 2240.367188 1107.851562 2250.894531 Z M 1441.683594 2730.3125 C 1426.625 2705.847656 1413.867188 2679.910156 1403.628906 2653.011719 C 1353.621094 2640.628906 1304.074219 2626.976562 1255.523438 2609.683594 C 1268.742188 2636.265625 1285.402344 2661.105469 1305.097656 2683.265625 C 1349.445312 2702.21875 1395.335938 2717.078125 1441.683594 2730.3125 Z M 1487.15625 2754.476562 C 1497.175781 2769.695312 1510.785156 2782.238281 1526.722656 2790.921875 C 1572.136719 2805.539062 1618.617188 2816.710938 1665.410156 2825.972656 C 1653.621094 2815.300781 1644.390625 2802.023438 1638.398438 2787.207031 C 1587.484375 2778.78125 1536.988281 2767.925781 1487.15625 2754.476562 Z M 1000.335938 2404.167969 C 965.5625 2386.570312 930.976562 2368.957031 899.097656 2346.507812 C 917.082031 2380.320312 938.953125 2411.984375 962.96875 2441.792969 C 992.917969 2465.164062 1023.863281 2487.226562 1056.949219 2505.902344 C 1035.007812 2473.964844 1016.417969 2439.402344 1000.335938 2404.167969 Z M 663.519531 1951.460938 C 650.34375 1941.003906 638.855469 1928.519531 630.230469 1914.078125 C 629.035156 1912.089844 627.867188 1910.089844 626.71875 1908.085938 C 645.421875 1967.644531 667.164062 2038.132812 710.332031 2084.804688 C 690.332031 2041.921875 676.652344 1997.007812 663.707031 1951.601562 Z M 1221.46875 2597.617188 C 1179.597656 2581.503906 1138.503906 2562.910156 1098.722656 2542.175781 C 1116.664062 2566.945312 1137.265625 2589.625 1161.039062 2608.820312 C 1196.605469 2632.664062 1234.890625 2652.0625 1273.867188 2669.671875 C 1253.449219 2648.058594 1235.753906 2623.753906 1221.46875 2597.617188 Z M 1221.46875 2597.617188 " fill-opacity="1" fill-rule="nonzero"/><path fill="#ff99d3" d="M 1038.289062 1339.199219 C 1038.046875 1372.796875 1038.015625 1406.40625 1038.246094 1440 C 1038.015625 1473.59375 1038.046875 1507.203125 1038.289062 1540.800781 C 985.949219 1539.101562 933.597656 1538.0625 881.242188 1536.394531 C 880.625 1504.265625 880.308594 1472.125 880.277344 1440 C 880.308594 1407.859375 880.625 1375.734375 881.242188 1343.605469 C 933.597656 1341.9375 985.949219 1340.898438 1038.289062 1339.199219 Z M 1294.097656 2062.398438 C 1287.933594 1996.027344 1283.226562 1929.65625 1279.527344 1863.101562 C 1218.230469 1859.773438 1156.761719 1854.777344 1095.699219 1848.457031 C 1100.738281 1912.796875 1105.605469 1977.351562 1113.855469 2041.359375 C 1173.898438 2048.917969 1233.78125 2056.996094 1294.097656 2062.398438 Z M 1857.777344 2140.691406 C 1858.355469 2202.941406 1858.871094 2265.175781 1859.9375 2327.414062 C 1897.808594 2328.480469 1935.648438 2328.824219 1973.5 2328.769531 C 2011.355469 2328.8125 2049.210938 2328.480469 2087.0625 2327.414062 C 2088.128906 2265.175781 2088.648438 2202.925781 2089.222656 2140.691406 C 2050.648438 2141.148438 2012.074219 2141.410156 1973.5 2141.46875 C 1934.925781 2141.410156 1896.351562 2141.136719 1857.777344 2140.691406 Z M 2550.285156 2487.152344 C 2559.746094 2436.652344 2568.875 2386.152344 2575.84375 2335.234375 C 2513.136719 2344.132812 2449.839844 2350.539062 2386.671875 2355.234375 C 2381.648438 2407.191406 2376.390625 2459.058594 2369.4375 2510.796875 C 2429.96875 2504.648438 2490.097656 2496.023438 2550.285156 2487.152344 Z M 2550.285156 2487.152344 " fill-opacity="1" fill-rule="nonzero"/><path fill="#ffa9da" d="M 2146.429688 1271.867188 C 2146.359375 1198.210938 2146.113281 1124.566406 2145.550781 1050.910156 C 2218.265625 1052.425781 2290.976562 1053.949219 2363.691406 1055.21875 C 2365.21875 1128.183594 2366.269531 1201.160156 2366.988281 1274.140625 C 2293.46875 1272.84375 2219.949219 1272.398438 2146.429688 1271.867188 Z M 2652.90625 817.601562 C 2659.066406 883.972656 2663.777344 950.34375 2667.476562 1016.898438 C 2728.769531 1020.226562 2790.238281 1025.222656 2851.304688 1031.542969 C 2846.265625 967.203125 2841.398438 902.648438 2833.148438 838.640625 C 2773.105469 831.082031 2713.207031 823.003906 2652.90625 817.601562 Z M 1973.5 1552.980469 C 2012.566406 1552.882812 2051.628906 1552.894531 2090.691406 1552.664062 C 2090.648438 1515.109375 2090.503906 1477.554688 2090.417969 1440 C 2090.503906 1402.445312 2090.648438 1364.890625 2090.691406 1327.335938 C 2051.628906 1327.105469 2012.566406 1327.117188 1973.5 1327.019531 C 1934.4375 1327.117188 1895.375 1327.105469 1856.308594 1327.335938 C 1856.351562 1364.890625 1856.496094 1402.445312 1856.582031 1440 C 1856.496094 1477.554688 1856.351562 1515.109375 1856.308594 1552.664062 C 1895.375 1552.894531 1934.4375 1552.882812 1973.5 1552.980469 Z M 2145.132812 1882.484375 C 2144.527344 1951.746094 2143.664062 2021.011719 2142.816406 2090.273438 C 2213.457031 2089.339844 2284.167969 2086.820312 2354.722656 2083.148438 C 2357.601562 2018.605469 2360.019531 1954.035156 2362.066406 1889.453125 L 2362.425781 1877.71875 C 2289.984375 1879.242188 2217.558594 1880.785156 2145.132812 1882.484375 Z M 2145.132812 1882.484375 " fill-opacity="1" fill-rule="nonzero"/><path fill="#fff0f9" d="M 3392.222656 1440 C 3391.960938 1463.558594 3391.15625 1487.132812 3389.917969 1510.648438 C 3389.023438 1511.195312 3388.117188 1511.742188 3387.226562 1512.289062 C 3374.667969 1515.425781 3361.941406 1517.832031 3349.113281 1519.488281 C 3349.875 1492.992188 3350.175781 1466.511719 3350.105469 1440.015625 C 3350.175781 1413.519531 3349.875 1387.023438 3349.113281 1360.542969 C 3361.925781 1362.195312 3374.667969 1364.601562 3387.226562 1367.742188 C 3388.132812 1368.289062 3389.023438 1368.835938 3389.917969 1369.382812 C 3391.15625 1392.867188 3391.960938 1416.441406 3392.222656 1440 Z M 2364.65625 334.757812 C 2424.367188 341.0625 2484.09375 348.882812 2543.144531 359.769531 C 2534.9375 320.113281 2524.699219 280.945312 2512.734375 242.265625 C 2456.738281 231.550781 2400.726562 221.976562 2344.253906 214.085938 C 2352.144531 254.117188 2358.609375 294.394531 2364.65625 334.757812 Z M 3293.402344 963.804688 C 3308.421875 1013.488281 3316.742188 1064.707031 3324.964844 1115.871094 L 3325.136719 1115.941406 C 3340.558594 1122.308594 3354.308594 1132.242188 3365.785156 1144.398438 C 3356.671875 1101.558594 3345.800781 1059.089844 3333.675781 1017 C 3331.445312 1009.238281 3328.421875 1001.722656 3324.417969 994.710938 C 3322.34375 991.066406 3320.199219 987.453125 3318.011719 983.867188 C 3309.902344 977.054688 3301.710938 970.371094 3293.402344 963.804688 Z M 3015.96875 676.023438 C 3028.753906 729.085938 3043.441406 782.078125 3051.578125 836.105469 C 3091 845.597656 3130.035156 857.175781 3168.105469 871.070312 C 3155.9375 820.554688 3145.023438 769.523438 3127.269531 720.605469 C 3091.433594 702.820312 3053.824219 688.9375 3015.96875 676.023438 Z M 2958.820312 505.726562 C 2977.78125 549.214844 2991.402344 594.476562 3005.859375 639.574219 C 3043.28125 652.925781 3080.386719 667.484375 3115.519531 686.144531 C 3101.683594 642.800781 3082.117188 601.964844 3063.414062 560.578125 C 3029.605469 540.316406 2995.304688 520.71875 2958.820312 505.726562 Z M 2737.308594 305.28125 C 2755.222656 340.601562 2770.097656 377.65625 2782.824219 415.167969 C 2828.324219 428.816406 2873.019531 444.398438 2916.644531 463.21875 C 2901.554688 427.105469 2883.429688 392.671875 2862.519531 359.582031 C 2822.347656 338.113281 2780.160156 320.628906 2737.308594 305.28125 Z M 3331.414062 1315.613281 C 3328.203125 1260.042969 3323.511719 1204.574219 3317.40625 1149.25 C 3289.945312 1141.242188 3262.230469 1134.519531 3234.179688 1129.046875 C 3240.917969 1187.8125 3247.011719 1246.867188 3249.269531 1305.992188 C 3276.816406 1307.824219 3304.246094 1311.035156 3331.414062 1315.613281 Z M 2626.8125 591.984375 C 2635.238281 651.441406 2642.464844 710.871094 2648.398438 770.644531 C 2708.066406 775.324219 2768.035156 783.316406 2827.015625 793.382812 C 2818.707031 735.726562 2811.390625 677.910156 2799.152344 620.929688 C 2742.304688 608.730469 2684.480469 599.140625 2626.8125 591.984375 Z M 2873.96875 844.964844 C 2882.015625 908.25 2889.648438 971.566406 2893.609375 1035.273438 C 2945.328125 1039.636719 2997.207031 1045.136719 3048.523438 1053.117188 C 3042.304688 992.203125 3036.355469 930.945312 3025.472656 870.683594 C 2975.191406 861.164062 2924.738281 851.6875 2873.96875 844.964844 Z M 3225.441406 1440 C 3225.3125 1409.773438 3224.808594 1379.550781 3223.898438 1349.335938 C 3183.195312 1347.335938 3142.460938 1346.070312 3101.742188 1344.601562 C 3102.128906 1376.394531 3102.203125 1408.203125 3101.972656 1440.015625 C 3102.203125 1471.824219 3102.128906 1503.621094 3101.742188 1535.429688 C 3142.460938 1533.960938 3183.210938 1532.691406 3223.898438 1530.691406 C 3224.792969 1500.453125 3225.3125 1470.226562 3225.441406 1440 Z M 3310.796875 1770.4375 C 3284.246094 1780.128906 3256.800781 1788.046875 3229.128906 1794.023438 C 3222.75 1850.269531 3212.496094 1905.265625 3200.734375 1960.589844 C 3228.191406 1951.445312 3254.496094 1939.808594 3279.753906 1925.640625 C 3291.285156 1874.160156 3301.8125 1822.421875 3310.796875 1770.4375 Z M 2854.890625 1799.378906 C 2860.085938 1730.792969 2862.421875 1662.019531 2863.945312 1593.257812 C 2801.929688 1595.765625 2739.886719 1597.695312 2677.859375 1599.984375 C 2676.101562 1670.542969 2673.898438 1741.117188 2670.183594 1811.605469 C 2731.796875 1808.195312 2793.378906 1803.917969 2854.890625 1799.378906 Z M 2854.890625 1799.378906 " fill-opacity="1" fill-rule="nonzero"/><path fill="#ffaedc" d="M 1973.5 508.148438 C 1935.847656 508.148438 1898.179688 508.507812 1860.527344 509.386719 C 1861.292969 456.609375 1862.585938 403.847656 1864.273438 351.101562 C 1900.65625 349.921875 1937.085938 349.417969 1973.5 349.460938 C 2009.929688 349.417969 2046.34375 349.921875 2082.730469 351.101562 C 2084.398438 403.847656 2085.710938 456.609375 2086.472656 509.386719 C 2048.820312 508.507812 2011.152344 508.148438 1973.5 508.148438 Z M 1153.882812 2433.039062 C 1138.765625 2386.035156 1127.765625 2338.113281 1116.257812 2290.148438 C 1068.066406 2278.484375 1020.164062 2266.617188 973.007812 2251.152344 C 985.476562 2297.175781 1000.59375 2342.824219 1018.101562 2387.132812 C 1062.222656 2405.175781 1107.765625 2420.886719 1153.882812 2433.039062 Z M 2916.632812 2416.78125 C 2873.003906 2435.601562 2828.308594 2451.195312 2782.808594 2464.832031 C 2770.082031 2502.34375 2755.207031 2539.398438 2737.296875 2574.71875 C 2780.144531 2559.371094 2822.335938 2541.886719 2862.507812 2520.417969 C 2883.414062 2487.3125 2901.542969 2452.894531 2916.632812 2416.78125 Z M 3065.746094 1536.394531 C 3066.363281 1504.265625 3066.679688 1472.125 3066.710938 1440 C 3066.679688 1407.859375 3066.363281 1375.734375 3065.746094 1343.605469 C 3013.40625 1341.9375 2961.050781 1340.898438 2908.699219 1339.199219 C 2908.941406 1372.796875 2908.972656 1406.40625 2908.742188 1440 C 2908.972656 1473.59375 2908.941406 1507.203125 2908.699219 1540.800781 C 2961.050781 1539.101562 3013.40625 1538.0625 3065.746094 1536.394531 Z M 3048.539062 1826.886719 C 2997.222656 1834.863281 2945.355469 1840.363281 2893.621094 1844.726562 C 2889.664062 1908.433594 2882.015625 1971.75 2873.984375 2035.035156 C 2924.753906 2028.3125 2975.207031 2018.835938 3025.484375 2009.320312 C 3036.355469 1949.054688 3042.316406 1887.796875 3048.539062 1826.886719 Z M 3048.539062 1826.886719 " fill-opacity="1" fill-rule="nonzero"/><path fill="#ff50ac" d="M 893.570312 1100.449219 C 945.5625 1093.984375 997.757812 1087 1050.097656 1084.105469 C 1045.835938 1152.117188 1041.761719 1220.125 1039.425781 1288.238281 C 987.074219 1290.65625 934.675781 1292.257812 882.351562 1295.265625 C 884.296875 1230.25 886.542969 1165.148438 893.570312 1100.449219 Z M 636.207031 1109.5625 C 662.757812 1099.871094 690.199219 1091.953125 717.875 1085.976562 C 724.253906 1029.730469 734.507812 974.734375 746.269531 919.410156 C 718.8125 928.554688 692.503906 940.191406 667.25 954.359375 C 655.714844 1005.839844 645.191406 1057.578125 636.207031 1109.5625 Z M 1556.328125 566.828125 C 1492.527344 572.730469 1428.855469 578.707031 1365.183594 585.878906 C 1357.367188 645.667969 1351.261719 705.714844 1345.15625 765.707031 C 1411.246094 760.074219 1477.335938 755.382812 1543.511719 750.859375 C 1547.429688 689.488281 1551.53125 628.128906 1556.328125 566.828125 Z M 724.671875 1304.25 C 765.191406 1301.210938 805.765625 1299.371094 846.3125 1296.71875 C 849.363281 1232.726562 853.726562 1168.804688 859.402344 1105 C 818.480469 1109.851562 777.890625 1117.035156 737.285156 1123.921875 C 729.464844 1183.652344 727.078125 1244.117188 724.671875 1304.25 Z M 615.574219 1315.613281 C 642.742188 1311.035156 670.1875 1307.824219 697.71875 1306.007812 C 699.976562 1246.882812 706.070312 1187.828125 712.808594 1129.0625 C 684.757812 1134.519531 657.039062 1141.257812 629.582031 1149.265625 C 623.492188 1204.574219 618.796875 1260.042969 615.574219 1315.613281 Z M 616.035156 1154.921875 C 616.035156 1154.921875 600.539062 1159.820312 591.007812 1166.414062 C 584.269531 1171.066406 579.300781 1176.0625 575.804688 1180.167969 C 568.617188 1230.175781 562.960938 1280.417969 559.433594 1330.832031 C 560.914062 1329.796875 587.496094 1321.070312 599.417969 1318.507812 C 600.726562 1263.628906 616.035156 1154.921875 616.035156 1154.921875 Z M 622.039062 1115.871094 C 630.257812 1064.722656 638.582031 1013.488281 653.601562 963.804688 C 645.292969 970.371094 637.097656 977.054688 628.976562 983.867188 C 626.789062 987.453125 624.660156 991.066406 622.570312 994.707031 C 618.566406 1001.722656 615.542969 1009.253906 613.3125 1017 C 601.1875 1059.089844 590.316406 1101.570312 581.203125 1144.398438 C 592.679688 1132.242188 606.429688 1122.308594 621.851562 1115.941406 Z M 1530.796875 1056.988281 C 1462.246094 1059.164062 1393.722656 1062.027344 1325.199219 1065.152344 C 1320.820312 1136.273438 1319.929688 1207.640625 1318.820312 1278.878906 C 1387.90625 1277.566406 1457.003906 1276.328125 1526.089844 1274.875 C 1527.039062 1202.226562 1528.726562 1129.59375 1530.796875 1056.988281 Z M 898.464844 1053.117188 C 949.78125 1045.136719 1001.644531 1039.636719 1053.378906 1035.273438 C 1057.339844 971.566406 1064.984375 908.25 1073.019531 844.964844 C 1022.25 851.6875 971.796875 861.164062 921.515625 870.683594 C 910.632812 930.945312 904.683594 992.203125 898.464844 1053.117188 Z M 1120.003906 793.367188 C 1178.980469 783.300781 1238.949219 775.308594 1298.617188 770.628906 C 1304.550781 710.871094 1311.765625 651.441406 1320.203125 591.96875 C 1262.519531 599.125 1204.695312 608.71875 1147.878906 620.898438 C 1135.609375 677.894531 1128.296875 735.726562 1120.003906 793.367188 Z M 1082.148438 1338.308594 C 1081.714844 1372.203125 1081.542969 1406.101562 1081.585938 1440 C 1081.53125 1473.898438 1081.714844 1507.796875 1082.148438 1541.691406 C 1144.148438 1543.160156 1206.164062 1544.199219 1268.152344 1545.8125 C 1267.921875 1510.546875 1267.921875 1475.28125 1268.136719 1440 C 1267.921875 1404.734375 1267.921875 1369.453125 1268.152344 1334.1875 C 1206.164062 1335.800781 1144.164062 1336.839844 1082.148438 1338.308594 Z M 929.0625 828.1875 C 978.421875 816.539062 1028.730469 807.277344 1078.910156 799.820312 C 1085.75 742.507812 1097.082031 685.769531 1107.851562 629.105469 C 1059.371094 639.621094 1010.601562 650.648438 963.445312 666.144531 C 948.886719 719.523438 938.808594 773.769531 929.0625 828.1875 Z M 1095.683594 1031.53125 C 1156.75 1025.207031 1218.214844 1020.210938 1279.511719 1016.886719 C 1283.210938 950.328125 1287.921875 883.957031 1294.082031 817.589844 C 1233.765625 822.988281 1173.882812 831.066406 1113.824219 838.628906 C 1105.605469 902.648438 1100.722656 967.203125 1095.683594 1031.53125 Z M 1092.113281 1080.621094 C 1086.914062 1149.207031 1084.582031 1217.980469 1083.054688 1286.742188 C 1145.070312 1284.234375 1207.113281 1282.304688 1269.144531 1280.015625 C 1270.902344 1209.457031 1273.105469 1138.882812 1276.820312 1068.394531 C 1215.207031 1071.804688 1153.625 1076.082031 1092.113281 1080.621094 Z M 721.5625 1440 C 721.691406 1470.226562 722.195312 1500.453125 723.101562 1530.664062 C 763.808594 1532.664062 804.542969 1533.929688 845.261719 1535.398438 C 844.871094 1503.605469 844.800781 1471.796875 845.03125 1439.984375 C 844.800781 1408.175781 844.871094 1376.378906 845.261719 1344.570312 C 804.542969 1346.039062 763.792969 1347.308594 723.101562 1349.308594 C 722.210938 1379.550781 721.691406 1409.773438 721.5625 1440 Z M 1200.835938 404.753906 C 1253.808594 390.066406 1307.402344 378.488281 1361.179688 367.214844 C 1370.453125 328.089844 1381.152344 289.152344 1394.671875 251.28125 C 1343.703125 262.496094 1293.710938 277.273438 1243.945312 292.953125 C 1227.589844 329.371094 1212.816406 366.652344 1200.835938 404.753906 Z M 1434.253906 242.265625 C 1422.289062 280.945312 1412.050781 320.125 1403.84375 359.769531 C 1462.910156 348.882812 1522.621094 341.0625 1582.332031 334.757812 C 1588.378906 294.394531 1594.84375 254.117188 1602.734375 214.070312 C 1546.261719 221.960938 1490.265625 231.550781 1434.253906 242.265625 Z M 1030.371094 463.21875 C 1074 444.398438 1118.691406 428.804688 1164.191406 415.167969 C 1176.921875 377.65625 1191.792969 340.601562 1209.707031 305.28125 C 1166.855469 320.628906 1124.667969 338.113281 1084.496094 359.582031 C 1063.574219 392.6875 1045.460938 427.105469 1030.371094 463.21875 Z M 1255.523438 270.316406 C 1304.074219 253.007812 1353.621094 239.371094 1403.628906 226.988281 C 1413.867188 200.089844 1426.636719 174.167969 1441.683594 149.6875 C 1395.335938 162.90625 1349.445312 177.769531 1305.097656 196.734375 C 1285.402344 218.894531 1268.742188 243.75 1255.523438 270.316406 Z M 1155.597656 581.34375 C 1212.113281 569.347656 1269.015625 559.699219 1326.089844 550.769531 C 1334.097656 500.574219 1342.722656 450.316406 1353.980469 400.722656 C 1299.253906 409.96875 1244.582031 422.164062 1191.046875 436.824219 C 1176.703125 484.214844 1164.957031 532.726562 1155.597656 581.34375 Z M 676.824219 918.230469 C 701.503906 903.195312 727.855469 890.324219 754.910156 880.085938 C 764.945312 829.757812 781.015625 781.257812 796.492188 732.414062 C 770.242188 745.746094 745.277344 762.394531 722.859375 781.417969 C 705.175781 826.085938 690.964844 872.308594 676.824219 918.230469 Z M 1638.414062 92.792969 C 1644.402344 77.976562 1653.632812 64.699219 1665.425781 54.027344 C 1618.628906 63.300781 1572.164062 74.460938 1526.738281 89.078125 C 1510.796875 97.761719 1497.191406 110.304688 1487.171875 125.523438 C 1536.988281 112.074219 1587.484375 101.21875 1638.414062 92.792969 Z M 973.007812 628.847656 C 1020.164062 613.382812 1068.066406 601.515625 1116.257812 589.851562 C 1127.765625 541.886719 1138.765625 493.949219 1153.882812 446.960938 C 1107.765625 459.117188 1062.234375 474.824219 1018.101562 492.867188 C 1000.59375 537.191406 985.476562 582.824219 973.007812 628.847656 Z M 831.480469 686.144531 C 866.601562 667.484375 903.707031 652.9375 941.140625 639.574219 C 955.597656 594.476562 969.21875 549.214844 988.183594 505.726562 C 951.695312 520.71875 917.398438 540.300781 883.589844 560.5625 C 864.886719 601.964844 845.320312 642.800781 831.480469 686.144531 Z M 1000.335938 475.832031 C 1016.402344 440.597656 1035.007812 406.050781 1056.949219 374.113281 C 1023.878906 392.789062 992.917969 414.851562 962.96875 438.222656 C 938.953125 468.027344 917.082031 499.695312 899.097656 533.503906 C 930.992188 511.042969 965.5625 493.429688 1000.335938 475.832031 Z M 1477.898438 139.851562 C 1463.828125 164.765625 1451.992188 191.042969 1442.621094 218.117188 C 1497.480469 206.351562 1552.699219 196.863281 1608.234375 188.972656 C 1614.511719 161.4375 1622.546875 134.292969 1632.28125 107.785156 C 1580.371094 116.207031 1528.78125 126.476562 1477.898438 139.851562 Z M 783.734375 654.855469 C 756.953125 694.09375 733.773438 735.683594 711.855469 777.816406 C 715.644531 773.46875 719.503906 769.175781 723.449219 764.972656 C 739.601562 726.148438 761.921875 690.683594 783.734375 654.855469 Z M 878.207031 548.742188 C 896.605469 515.535156 919.097656 485.078125 943.761719 456.335938 C 895.757812 505.179688 850.503906 557.554688 811.8125 614.101562 C 830.890625 589.421875 853.121094 567.144531 878.207031 548.742188 Z M 1122.59375 298.210938 C 1071.910156 334.769531 1023.300781 374.933594 980.089844 420.148438 C 1007.824219 394.042969 1039.472656 372.558594 1072.285156 353.363281 C 1087.304688 333.402344 1104.078125 315.015625 1122.59375 298.210938 Z M 1494.183594 99.9375 C 1434.125 121.117188 1367.503906 141.378906 1318.289062 182.996094 C 1361.84375 164.734375 1406.464844 149.082031 1451.707031 135.5625 C 1462.679688 120.339844 1477.351562 108 1494.183594 99.9375 Z M 1305.703125 182.980469 C 1261.140625 205.417969 1218.230469 231.191406 1177.179688 259.515625 C 1212.429688 236.089844 1249.433594 215.28125 1287.605469 196.992188 C 1293.636719 192.3125 1299.671875 187.648438 1305.703125 182.980469 Z M 1221.46875 282.382812 C 1235.753906 256.25 1253.449219 231.941406 1273.851562 210.328125 C 1234.875 227.9375 1196.589844 247.335938 1161.023438 271.179688 C 1137.265625 290.363281 1116.664062 313.054688 1098.707031 337.824219 C 1138.503906 317.101562 1179.585938 298.496094 1221.46875 282.382812 Z M 778.898438 871.054688 C 816.96875 857.160156 856.003906 845.582031 895.425781 836.09375 C 903.5625 782.0625 918.246094 729.085938 931.035156 676.007812 C 893.179688 688.925781 855.570312 702.804688 819.730469 720.589844 C 801.976562 769.507812 791.0625 820.554688 778.898438 871.054688 Z M 1837.546875 85.523438 C 1782.285156 88.777344 1727.097656 93.917969 1672.292969 101.734375 C 1663.597656 128.519531 1656.554688 155.851562 1651.1875 183.5 C 1710.003906 176.601562 1769.023438 171.734375 1828.160156 168.695312 C 1830.175781 140.859375 1833.300781 113.097656 1837.546875 85.523438 Z M 1646.421875 208.785156 C 1639.480469 249.105469 1633.273438 289.554688 1628.25 330.164062 C 1691.214844 323.984375 1754.410156 319.953125 1817.636719 317.578125 C 1819.695312 276.464844 1822.558594 235.398438 1825.898438 194.371094 C 1765.945312 197.351562 1706.074219 202.0625 1646.421875 208.785156 Z M 1677.722656 86.660156 C 1731.53125 78.855469 1785.699219 73.355469 1839.96875 70.097656 C 1841.808594 56.1875 1845.394531 42.539062 1850.652344 29.550781 C 1800.6875 33.019531 1750.941406 39.167969 1701.523438 47.304688 C 1690.898438 58.535156 1682.777344 71.984375 1677.722656 86.660156 Z M 1623.914062 364.621094 C 1618.113281 416.636719 1612.726562 468.75 1608.925781 520.949219 C 1675.835938 516.3125 1742.804688 512.855469 1809.84375 510.738281 C 1811.53125 458.007812 1813.085938 405.257812 1815.804688 352.570312 C 1751.746094 355.019531 1687.789062 359.195312 1623.914062 364.621094 Z M 1396.71875 392.847656 C 1387.257812 443.347656 1378.128906 493.847656 1371.160156 544.765625 C 1433.867188 535.867188 1497.164062 529.460938 1560.328125 524.765625 C 1565.355469 472.808594 1570.609375 420.941406 1577.566406 369.203125 C 1517.03125 375.351562 1456.902344 383.976562 1396.71875 392.847656 Z M 1580.027344 1274.15625 C 1653.53125 1272.84375 1727.054688 1272.398438 1800.574219 1271.867188 C 1800.644531 1198.210938 1800.890625 1124.566406 1801.449219 1050.910156 C 1728.738281 1052.425781 1656.023438 1053.949219 1583.308594 1055.21875 C 1581.785156 1128.195312 1580.734375 1201.175781 1580.027344 1274.15625 Z M 1808.621094 553.738281 C 1740.992188 555.550781 1673.230469 558.246094 1605.785156 563.601562 C 1601.265625 625.117188 1597.492188 686.605469 1594.597656 748.222656 C 1664.632812 744.207031 1734.785156 741.929688 1804.90625 740.519531 C 1805.769531 678.253906 1806.722656 615.972656 1808.621094 553.738281 Z M 1579.410156 1440 C 1579.320312 1476.878906 1579.378906 1513.757812 1579.566406 1550.621094 C 1653.230469 1551.398438 1726.878906 1552.191406 1800.542969 1552.464844 C 1800.542969 1514.980469 1800.746094 1477.484375 1800.847656 1440 C 1800.746094 1402.515625 1800.542969 1365.019531 1800.542969 1327.535156 C 1726.878906 1327.796875 1653.230469 1328.601562 1579.566406 1329.378906 C 1579.378906 1366.242188 1579.320312 1403.121094 1579.410156 1440 Z M 1801.867188 997.515625 C 1802.472656 928.253906 1803.335938 858.988281 1804.1875 789.726562 C 1733.546875 790.660156 1662.835938 793.179688 1592.28125 796.851562 C 1589.402344 861.394531 1586.980469 925.964844 1584.9375 990.546875 L 1584.578125 1002.285156 C 1657.015625 1000.757812 1729.441406 999.214844 1801.867188 997.515625 Z M 2725.53125 282.382812 C 2767.402344 298.496094 2808.496094 317.089844 2848.28125 337.824219 C 2830.339844 313.054688 2809.734375 290.375 2785.964844 271.179688 C 2750.398438 247.335938 2712.113281 227.9375 2673.132812 210.328125 C 2693.550781 231.941406 2711.25 256.25 2725.53125 282.382812 Z M 2459.832031 125.523438 C 2449.8125 110.304688 2436.203125 97.761719 2420.265625 89.078125 C 2374.835938 74.460938 2328.371094 63.289062 2281.578125 54.027344 C 2293.367188 64.699219 2302.597656 77.976562 2308.589844 92.792969 C 2359.515625 101.21875 2410 112.074219 2459.832031 125.523438 Z M 2495.296875 135.574219 C 2540.539062 149.097656 2585.160156 164.75 2628.714844 183.007812 C 2579.5 141.378906 2512.878906 121.132812 2452.820312 99.949219 C 2469.652344 108 2484.324219 120.339844 2495.296875 135.574219 Z M 2769.820312 259.515625 C 2728.757812 231.191406 2685.863281 205.417969 2641.300781 182.980469 C 2647.332031 187.648438 2653.367188 192.3125 2659.398438 196.992188 C 2697.570312 215.28125 2734.558594 236.089844 2769.820312 259.515625 Z M 2946.667969 475.832031 C 2981.441406 493.429688 3016.027344 511.042969 3047.90625 533.492188 C 3029.921875 499.679688 3008.046875 468.015625 2984.03125 438.207031 C 2954.082031 414.835938 2923.140625 392.773438 2890.050781 374.097656 C 2911.996094 406.035156 2930.582031 440.597656 2946.667969 475.832031 Z M 2874.703125 353.363281 C 2907.53125 372.558594 2939.179688 394.042969 2966.898438 420.148438 C 2923.671875 374.933594 2875.078125 334.769531 2824.394531 298.210938 C 2842.925781 315.015625 2859.683594 333.402344 2874.703125 353.363281 Z M 3135.191406 614.089844 C 3096.5 557.539062 3051.246094 505.167969 3003.238281 456.320312 C 3027.917969 485.078125 3050.394531 515.535156 3068.796875 548.726562 C 3093.878906 567.144531 3116.113281 589.421875 3135.191406 614.089844 Z M 2090.40625 996.867188 C 2090.230469 927.433594 2089.957031 857.996094 2089.625 788.542969 C 2050.910156 788.328125 2012.203125 788.039062 1973.5 787.910156 C 1934.796875 788.054688 1896.09375 788.34375 1857.375 788.542969 C 1857.042969 857.980469 1856.769531 927.417969 1856.597656 996.867188 C 1895.574219 996.566406 1934.539062 996.277344 1973.5 996.148438 C 2012.464844 996.277344 2051.425781 996.566406 2090.40625 996.867188 Z M 2089.222656 739.308594 C 2088.648438 677.058594 2088.128906 614.824219 2087.0625 552.585938 C 2049.195312 551.519531 2011.355469 551.175781 1973.5 551.230469 C 1935.648438 551.1875 1897.792969 551.519531 1859.9375 552.585938 C 1858.875 614.824219 1858.355469 677.074219 1857.777344 739.308594 C 1896.351562 738.851562 1934.925781 738.589844 1973.5 738.53125 C 2012.074219 738.589844 2050.648438 738.863281 2089.222656 739.308594 Z M 2066.15625 67.984375 C 2064.902344 54.214844 2062.355469 40.578125 2058.570312 27.300781 C 2030.230469 25.921875 2001.867188 25.34375 1973.5 25.460938 C 1945.136719 25.34375 1916.753906 25.921875 1888.433594 27.300781 C 1884.648438 40.578125 1882.113281 54.214844 1880.859375 67.984375 C 1911.730469 66.757812 1942.617188 66.285156 1973.515625 66.398438 C 2004.386719 66.269531 2035.285156 66.757812 2066.15625 67.984375 Z M 3355.980469 1166.414062 C 3346.449219 1159.820312 3330.953125 1154.921875 3330.953125 1154.921875 C 3330.953125 1154.921875 3346.261719 1263.628906 3347.570312 1318.507812 C 3359.492188 1321.070312 3386.074219 1329.78125 3387.554688 1330.832031 C 3384.027344 1280.417969 3378.371094 1230.175781 3371.183594 1180.167969 C 3367.6875 1176.0625 3362.71875 1171.066406 3355.980469 1166.414062 Z M 2081.691406 315.792969 C 2080.179688 274.679688 2078.394531 233.566406 2075.960938 192.5 C 2041.824219 191.492188 2007.65625 191.015625 1973.5 191.074219 C 1939.347656 191.015625 1905.195312 191.503906 1871.039062 192.5 C 1868.605469 233.566406 1866.820312 274.679688 1865.308594 315.792969 C 1901.347656 314.929688 1937.433594 314.335938 1973.5 314.292969 C 2009.570312 314.335938 2045.640625 314.929688 2081.691406 315.792969 Z M 2074.308594 166.851562 C 2072.96875 138.988281 2070.808594 111.167969 2067.828125 83.449219 C 2036.410156 82.265625 2004.949219 81.761719 1973.5 81.878906 C 1942.054688 81.761719 1910.59375 82.265625 1879.175781 83.449219 C 1876.195312 111.167969 1874.019531 138.988281 1872.695312 166.851562 C 1906.273438 165.699219 1939.878906 165.125 1973.5 165.167969 C 2007.121094 165.125 2040.730469 165.699219 2074.308594 166.851562 Z M 2314.707031 107.785156 C 2324.425781 134.292969 2332.476562 161.4375 2338.753906 188.972656 C 2394.289062 196.863281 2449.523438 206.351562 2504.367188 218.117188 C 2494.992188 191.042969 2483.15625 164.765625 2469.089844 139.851562 C 2418.21875 126.476562 2366.628906 116.207031 2314.707031 107.785156 Z M 2505.316406 149.6875 C 2520.378906 174.152344 2533.136719 200.089844 2543.375 226.988281 C 2593.378906 239.371094 2642.925781 253.023438 2691.480469 270.316406 C 2678.261719 243.734375 2661.601562 218.894531 2641.902344 196.734375 C 2597.554688 177.78125 2551.667969 162.921875 2505.316406 149.6875 Z M 3235.132812 777.816406 C 3213.214844 735.683594 3190.035156 694.09375 3163.253906 654.855469 C 3185.082031 690.683594 3207.386719 726.148438 3223.539062 764.972656 C 3227.484375 769.175781 3231.359375 773.46875 3235.132812 777.816406 Z M 3283.480469 928.539062 C 3296.65625 938.996094 3308.148438 951.480469 3316.773438 965.921875 C 3317.96875 967.910156 3319.132812 969.914062 3320.285156 971.914062 C 3301.582031 912.355469 3279.839844 841.867188 3236.671875 795.195312 C 3256.671875 838.078125 3270.351562 882.992188 3283.292969 928.398438 Z M 2552.328125 251.28125 C 2565.851562 289.152344 2576.535156 328.089844 2585.820312 367.214844 C 2639.601562 378.488281 2693.179688 390.066406 2746.164062 404.753906 C 2734.183594 366.652344 2719.425781 329.386719 2703.070312 292.953125 C 2653.292969 277.273438 2603.300781 262.496094 2552.328125 251.28125 Z M 3150.523438 732.414062 C 3166.003906 781.257812 3182.070312 829.757812 3192.109375 880.085938 C 3219.164062 890.335938 3245.511719 903.195312 3270.191406 918.230469 C 3256.039062 872.308594 3241.828125 826.085938 3224.171875 781.402344 C 3201.742188 762.40625 3176.773438 745.746094 3150.523438 732.414062 Z M 2793.121094 446.960938 C 2808.238281 493.964844 2819.238281 541.886719 2830.742188 589.851562 C 2878.9375 601.515625 2926.839844 613.382812 2973.996094 628.847656 C 2961.527344 582.824219 2946.40625 537.175781 2928.898438 492.867188 C 2884.765625 474.824219 2839.238281 459.117188 2793.121094 446.960938 Z M 2593.019531 400.738281 C 2604.292969 450.332031 2612.917969 500.585938 2620.910156 550.785156 C 2677.988281 559.699219 2734.890625 569.347656 2791.40625 581.355469 C 2782.046875 532.742188 2770.296875 484.230469 2755.957031 436.839844 C 2702.421875 422.179688 2647.734375 409.984375 2593.019531 400.738281 Z M 3084.074219 575.796875 C 3105.601562 614.953125 3122 656.640625 3139.179688 697.851562 C 3164.691406 712.945312 3188.667969 730.640625 3210.25 750.6875 C 3193.375 711.75 3174.65625 673.632812 3150.695312 638.523438 C 3132.09375 614.117188 3109.472656 593.09375 3084.074219 575.796875 Z M 2369.4375 369.1875 C 2376.40625 420.925781 2381.660156 472.796875 2386.671875 524.75 C 2449.839844 529.445312 2513.136719 535.851562 2575.84375 544.753906 C 2568.875 493.832031 2559.746094 443.347656 2550.285156 392.832031 C 2490.097656 383.976562 2429.96875 375.351562 2369.4375 369.1875 Z M 2628.167969 1278.863281 C 2627.074219 1207.628906 2626.167969 1136.261719 2621.789062 1065.140625 C 2553.28125 1062.015625 2484.757812 1059.148438 2416.191406 1056.972656 C 2418.261719 1129.578125 2419.949219 1202.210938 2420.882812 1274.847656 C 2489.984375 1276.316406 2559.082031 1277.554688 2628.167969 1278.863281 Z M 2354.707031 796.851562 C 2284.167969 793.167969 2213.441406 790.660156 2142.800781 789.726562 C 2143.652344 858.988281 2144.527344 928.253906 2145.121094 997.515625 C 2217.546875 999.214844 2289.96875 1000.757812 2362.394531 1002.285156 L 2362.035156 990.546875 C 2360.007812 925.964844 2357.585938 861.394531 2354.707031 796.851562 Z M 2406.425781 799.230469 C 2409.726562 867.585938 2412.359375 935.984375 2414.589844 1004.386719 C 2482.753906 1006.199219 2551.105469 1008.949219 2619.109375 1013.746094 C 2615.265625 946.84375 2610.933594 879.96875 2605.90625 813.140625 C 2539.414062 808.429688 2472.964844 803.578125 2406.425781 799.230469 Z M 2390.675781 566.828125 C 2395.46875 628.128906 2399.574219 689.488281 2403.488281 750.859375 C 2469.667969 755.382812 2535.742188 760.074219 2601.847656 765.707031 C 2595.742188 705.714844 2589.636719 645.667969 2581.816406 585.878906 C 2518.148438 578.707031 2454.476562 572.730469 2390.675781 566.828125 Z M 2118.839844 168.695312 C 2177.976562 171.734375 2236.996094 176.601562 2295.816406 183.5 C 2290.445312 155.851562 2283.40625 128.519531 2274.707031 101.734375 C 2219.890625 93.917969 2164.714844 88.777344 2109.453125 85.523438 C 2113.6875 113.097656 2116.824219 140.859375 2118.839844 168.695312 Z M 2269.28125 86.660156 C 2264.226562 71.984375 2256.105469 58.535156 2245.476562 47.320312 C 2196.078125 39.183594 2146.316406 33.035156 2096.351562 29.5625 C 2101.59375 42.539062 2105.191406 56.1875 2107.035156 70.113281 C 2161.316406 73.355469 2215.472656 78.855469 2269.28125 86.660156 Z M 2138.382812 553.738281 C 2140.28125 615.972656 2141.230469 678.253906 2142.109375 740.519531 C 2212.230469 741.929688 2282.398438 744.207031 2352.417969 748.222656 C 2349.523438 686.621094 2345.75 625.117188 2341.230469 563.601562 C 2273.773438 558.246094 2206.011719 555.539062 2138.382812 553.738281 Z M 1973.5 1049.703125 C 1934.480469 1049.847656 1895.472656 1050.121094 1856.453125 1050.421875 C 1856.308594 1124.152344 1856.253906 1197.894531 1856.265625 1271.621094 C 1895.34375 1271.289062 1934.421875 1271.089844 1973.5 1271 C 2012.578125 1271.089844 2051.65625 1271.289062 2090.734375 1271.621094 C 2090.75 1197.894531 2090.691406 1124.152344 2090.546875 1050.421875 C 2051.527344 1050.121094 2012.523438 1049.832031 1973.5 1049.703125 Z M 2121.101562 194.371094 C 2124.457031 235.398438 2127.308594 276.464844 2129.367188 317.578125 C 2192.59375 319.953125 2255.789062 323.984375 2318.753906 330.164062 C 2313.714844 289.570312 2307.507812 249.105469 2300.582031 208.800781 C 2240.929688 202.0625 2181.058594 197.351562 2121.101562 194.371094 Z M 2131.179688 352.570312 C 2133.902344 405.257812 2135.472656 458.007812 2137.144531 510.738281 C 2204.183594 512.839844 2271.152344 516.296875 2338.0625 520.949219 C 2334.261719 468.75 2328.875 416.636719 2323.074219 364.621094 C 2259.199219 359.195312 2195.257812 355.019531 2131.179688 352.570312 Z M 3058.617188 878.414062 C 3068.796875 938.160156 3078.113281 997.921875 3083.3125 1058.34375 C 3123.714844 1064.492188 3164.058594 1071.390625 3203.972656 1080.1875 C 3196.285156 1023.496094 3188.378906 966.628906 3177.234375 910.511719 C 3137.953125 898.90625 3098.660156 887.167969 3058.617188 878.414062 Z M 3222.332031 1304.25 C 3219.925781 1244.101562 3217.535156 1183.652344 3209.703125 1123.921875 C 3169.097656 1117.023438 3128.507812 1109.851562 3087.585938 1105 C 3093.261719 1168.804688 3097.636719 1232.726562 3100.675781 1296.71875 C 3141.238281 1299.382812 3181.8125 1301.210938 3222.332031 1304.25 Z M 3200.734375 919.410156 C 3212.496094 974.734375 3222.75 1029.730469 3229.125 1085.976562 C 3256.800781 1091.953125 3284.246094 1099.871094 3310.796875 1109.5625 C 3301.8125 1057.566406 3291.285156 1005.839844 3279.765625 954.359375 C 3254.496094 940.203125 3228.191406 928.570312 3200.734375 919.410156 Z M 2896.90625 1084.105469 C 2901.167969 1152.113281 2905.242188 1220.125 2907.574219 1288.238281 C 2959.929688 1290.65625 3012.324219 1292.257812 3064.648438 1295.265625 C 3062.707031 1230.25 3060.445312 1165.148438 3053.417969 1100.449219 C 3001.441406 1093.984375 2949.246094 1087 2896.90625 1084.105469 Z M 2863.945312 1286.726562 C 2862.40625 1217.964844 2860.085938 1149.191406 2854.890625 1080.605469 C 2793.378906 1076.070312 2731.796875 1071.804688 2670.199219 1068.394531 C 2673.914062 1138.882812 2676.101562 1209.457031 2677.871094 1280.015625 C 2739.886719 1282.292969 2801.929688 1284.222656 2863.945312 1286.726562 Z M 2839.152344 629.105469 C 2849.9375 685.769531 2861.253906 742.507812 2868.09375 799.820312 C 2918.257812 807.277344 2968.582031 816.539062 3017.941406 828.1875 C 3008.191406 773.769531 2998.113281 719.523438 2983.554688 666.144531 C 2936.402344 650.648438 2887.632812 639.632812 2839.152344 629.105469 Z M 746.253906 1960.589844 C 734.492188 1905.265625 724.238281 1850.269531 717.859375 1794.023438 C 690.1875 1788.046875 662.742188 1780.128906 636.191406 1770.4375 C 645.175781 1822.433594 655.703125 1874.160156 667.222656 1925.640625 C 692.503906 1939.796875 718.8125 1951.429688 746.253906 1960.589844 Z M 1556.328125 2313.171875 C 1551.53125 2251.871094 1547.429688 2190.511719 1543.511719 2129.140625 C 1477.335938 2124.617188 1411.261719 2119.925781 1345.15625 2114.292969 C 1351.261719 2174.285156 1357.367188 2234.332031 1365.183594 2294.121094 C 1428.839844 2301.292969 1492.527344 2307.269531 1556.328125 2313.171875 Z M 859.402344 1775 C 853.726562 1711.195312 849.351562 1647.273438 846.3125 1583.28125 C 805.765625 1580.628906 765.191406 1578.789062 724.671875 1575.75 C 727.078125 1635.898438 729.464844 1696.347656 737.300781 1756.078125 C 777.890625 1762.964844 818.480469 1770.132812 859.402344 1775 Z M 712.808594 1750.9375 C 706.070312 1692.171875 699.976562 1633.117188 697.71875 1573.992188 C 670.1875 1572.164062 642.742188 1568.953125 615.574219 1564.386719 C 618.785156 1619.957031 623.476562 1675.425781 629.582031 1730.75 C 657.039062 1738.757812 684.757812 1745.480469 712.808594 1750.9375 Z M 653.601562 1916.195312 C 638.582031 1866.511719 630.257812 1815.292969 622.039062 1764.128906 L 621.863281 1764.058594 C 606.445312 1757.691406 592.691406 1747.757812 581.21875 1735.601562 C 590.332031 1778.441406 601.203125 1820.910156 613.328125 1863 C 615.558594 1870.761719 618.582031 1878.277344 622.585938 1885.289062 C 624.660156 1888.933594 626.804688 1892.546875 628.992188 1896.132812 C 637.085938 1902.945312 645.292969 1909.628906 653.601562 1916.195312 Z M 1530.796875 1823.011719 C 1528.726562 1750.40625 1527.039062 1677.773438 1526.105469 1605.140625 C 1457.019531 1603.683594 1387.933594 1602.445312 1318.835938 1601.136719 C 1319.929688 1672.371094 1320.835938 1743.738281 1325.214844 1814.859375 C 1393.722656 1817.984375 1462.246094 1820.835938 1530.796875 1823.011719 Z M 1073.019531 2035.035156 C 1064.972656 1971.75 1057.339844 1908.433594 1053.378906 1844.726562 C 1001.660156 1840.363281 949.78125 1834.863281 898.464844 1826.882812 C 904.683594 1887.796875 910.632812 1949.054688 921.515625 2009.316406 C 971.8125 2018.835938 1022.265625 2028.3125 1073.019531 2035.035156 Z M 1320.1875 2288.015625 C 1311.765625 2228.558594 1304.535156 2169.128906 1298.605469 2109.355469 C 1238.9375 2104.675781 1178.964844 2096.683594 1119.988281 2086.617188 C 1128.296875 2144.273438 1135.609375 2202.089844 1147.851562 2259.070312 C 1204.683594 2271.269531 1262.507812 2280.859375 1320.1875 2288.015625 Z M 1276.804688 1811.605469 C 1273.089844 1741.117188 1270.902344 1670.542969 1269.128906 1599.984375 C 1207.101562 1597.695312 1145.070312 1595.78125 1083.042969 1593.257812 C 1084.582031 1662.019531 1086.898438 1730.792969 1092.097656 1799.382812 C 1153.625 1803.917969 1215.207031 1808.195312 1276.804688 1811.605469 Z M 1394.671875 2628.71875 C 1381.152344 2590.847656 1370.46875 2551.910156 1361.179688 2512.785156 C 1307.402344 2501.511719 1253.824219 2489.933594 1200.835938 2475.246094 C 1212.816406 2513.347656 1227.574219 2550.613281 1243.933594 2587.046875 C 1293.695312 2602.726562 1343.703125 2617.503906 1394.671875 2628.71875 Z M 1582.332031 2545.242188 C 1522.621094 2538.9375 1462.894531 2531.117188 1403.84375 2520.230469 C 1412.050781 2559.886719 1422.289062 2599.054688 1434.253906 2637.734375 C 1490.25 2648.449219 1546.261719 2658.023438 1602.734375 2665.914062 C 1594.84375 2625.882812 1588.378906 2585.605469 1582.332031 2545.242188 Z M 1209.691406 2574.71875 C 1191.78125 2539.398438 1176.90625 2502.34375 1164.179688 2464.832031 C 1118.679688 2451.183594 1073.984375 2435.601562 1030.355469 2416.78125 C 1045.445312 2452.894531 1063.574219 2487.328125 1084.480469 2520.417969 C 1124.652344 2541.886719 1166.84375 2559.371094 1209.691406 2574.71875 Z M 1353.980469 2479.261719 C 1342.707031 2429.667969 1334.082031 2379.414062 1326.089844 2329.214844 C 1269.015625 2320.300781 1212.113281 2310.652344 1155.597656 2298.644531 C 1164.957031 2347.257812 1176.703125 2395.769531 1191.046875 2443.160156 C 1244.582031 2457.820312 1299.253906 2470.019531 1353.980469 2479.261719 Z M 796.476562 2147.585938 C 781 2098.742188 764.929688 2050.242188 754.894531 1999.914062 C 727.839844 1989.664062 701.488281 1976.789062 676.808594 1961.769531 C 690.964844 2007.691406 705.175781 2053.914062 722.828125 2098.597656 C 745.261719 2117.59375 770.230469 2134.253906 796.476562 2147.585938 Z M 988.183594 2374.273438 C 969.21875 2330.785156 955.597656 2285.523438 941.140625 2240.425781 C 903.71875 2227.074219 866.613281 2212.515625 831.480469 2193.855469 C 845.320312 2237.199219 864.886719 2278.035156 883.589844 2319.421875 C 917.398438 2339.683594 951.695312 2359.28125 988.183594 2374.273438 Z M 1632.292969 2772.214844 C 1622.574219 2745.707031 1614.527344 2718.5625 1608.25 2691.027344 C 1552.714844 2683.136719 1497.480469 2673.648438 1442.636719 2661.882812 C 1452.007812 2688.957031 1463.84375 2715.234375 1477.910156 2740.148438 C 1528.78125 2753.523438 1580.371094 2763.792969 1632.292969 2772.214844 Z M 862.929688 2304.203125 C 841.402344 2265.046875 825.003906 2223.359375 807.824219 2182.148438 C 782.308594 2167.054688 758.335938 2149.359375 736.753906 2129.3125 C 753.628906 2168.25 772.347656 2206.367188 796.304688 2241.476562 C 814.894531 2265.882812 837.527344 2286.90625 862.929688 2304.203125 Z M 711.871094 2102.183594 C 733.785156 2144.320312 756.96875 2185.90625 783.75 2225.144531 C 761.921875 2189.320312 739.617188 2153.851562 723.460938 2115.027344 C 719.503906 2110.824219 715.644531 2106.53125 711.871094 2102.183594 Z M 811.8125 2265.910156 C 850.503906 2322.460938 895.757812 2374.832031 943.761719 2423.679688 C 919.082031 2394.921875 896.605469 2364.464844 878.207031 2331.273438 C 853.121094 2312.855469 830.890625 2290.578125 811.8125 2265.910156 Z M 1072.285156 2526.636719 C 1039.457031 2507.441406 1007.808594 2485.957031 980.089844 2459.851562 C 1023.316406 2505.066406 1071.910156 2545.230469 1122.59375 2581.789062 C 1104.078125 2564.984375 1087.304688 2546.597656 1072.285156 2526.636719 Z M 1451.707031 2744.425781 C 1406.464844 2730.902344 1361.84375 2715.25 1318.289062 2696.992188 C 1367.503906 2738.621094 1434.125 2758.867188 1494.183594 2780.050781 C 1477.351562 2772 1462.679688 2759.660156 1451.707031 2744.425781 Z M 1177.179688 2620.484375 C 1218.246094 2648.808594 1261.140625 2674.585938 1305.703125 2697.019531 C 1299.671875 2692.351562 1293.636719 2687.6875 1287.605469 2683.007812 C 1249.433594 2664.71875 1212.441406 2643.910156 1177.179688 2620.484375 Z M 931.035156 2203.976562 C 918.246094 2150.914062 903.5625 2097.921875 895.425781 2043.894531 C 856.003906 2034.402344 816.96875 2022.824219 778.898438 2008.929688 C 791.0625 2059.445312 801.976562 2110.476562 819.730469 2159.394531 C 855.570312 2177.179688 893.179688 2191.0625 931.035156 2203.976562 Z M 1828.144531 2711.304688 C 1769.011719 2708.265625 1709.992188 2703.398438 1651.171875 2696.5 C 1656.542969 2724.148438 1663.582031 2751.480469 1672.28125 2778.265625 C 1727.097656 2786.082031 1782.273438 2791.222656 1837.535156 2794.480469 C 1833.300781 2766.902344 1830.175781 2739.140625 1828.144531 2711.304688 Z M 1825.898438 2685.628906 C 1822.546875 2644.601562 1819.695312 2603.535156 1817.636719 2562.421875 C 1754.410156 2560.046875 1691.214844 2556.015625 1628.25 2549.835938 C 1633.289062 2590.429688 1639.496094 2630.894531 1646.421875 2671.199219 C 1706.074219 2677.9375 1765.945312 2682.648438 1825.898438 2685.628906 Z M 1677.722656 2793.339844 C 1682.777344 2808.015625 1690.898438 2821.464844 1701.523438 2832.683594 C 1750.925781 2840.816406 1800.6875 2846.964844 1850.652344 2850.4375 C 1845.410156 2837.460938 1841.808594 2823.8125 1839.96875 2809.886719 C 1785.683594 2806.648438 1731.53125 2801.144531 1677.722656 2793.339844 Z M 1815.804688 2527.429688 C 1813.085938 2474.742188 1811.515625 2421.992188 1809.84375 2369.261719 C 1742.804688 2367.160156 1675.835938 2363.703125 1608.925781 2359.050781 C 1612.726562 2411.25 1618.113281 2463.363281 1623.914062 2515.378906 C 1687.789062 2520.804688 1751.746094 2524.980469 1815.804688 2527.429688 Z M 1577.566406 2510.8125 C 1570.597656 2459.074219 1565.339844 2407.203125 1560.328125 2355.25 C 1497.164062 2350.554688 1433.867188 2344.148438 1371.160156 2335.246094 C 1378.128906 2386.167969 1387.257812 2436.652344 1396.71875 2487.167969 C 1456.902344 2496.023438 1517.03125 2504.648438 1577.566406 2510.8125 Z M 1801.449219 1829.074219 C 1800.890625 1755.417969 1800.644531 1681.777344 1800.574219 1608.121094 C 1727.054688 1607.601562 1653.53125 1607.140625 1580.027344 1605.832031 C 1580.734375 1678.808594 1581.796875 1751.789062 1583.324219 1824.753906 C 1656.023438 1826.035156 1728.738281 1827.5625 1801.449219 1829.074219 Z M 1808.621094 2326.261719 C 1806.722656 2264.027344 1805.769531 2201.746094 1804.890625 2139.480469 C 1734.769531 2138.070312 1664.605469 2135.792969 1594.585938 2131.777344 C 1597.480469 2193.378906 1601.25 2254.882812 1605.773438 2316.398438 C 1673.214844 2321.753906 1740.992188 2324.460938 1808.621094 2326.261719 Z M 1592.296875 2083.148438 C 1662.835938 2086.832031 1733.5625 2089.339844 1804.199219 2090.273438 C 1803.351562 2021.011719 1802.472656 1951.746094 1801.882812 1882.484375 C 1729.457031 1880.785156 1657.03125 1879.242188 1584.605469 1877.714844 L 1584.964844 1889.453125 C 1586.996094 1954.035156 1589.402344 2018.605469 1592.296875 2083.148438 Z M 2725.53125 2597.617188 C 2711.25 2623.75 2693.550781 2648.058594 2673.148438 2669.671875 C 2712.125 2652.0625 2750.414062 2632.664062 2785.976562 2608.820312 C 2809.734375 2589.636719 2830.339844 2566.945312 2848.296875 2542.175781 C 2808.496094 2562.898438 2767.417969 2581.503906 2725.53125 2597.617188 Z M 2308.589844 2787.207031 C 2302.597656 2802.023438 2293.367188 2815.300781 2281.574219 2825.972656 C 2328.371094 2816.699219 2374.835938 2805.539062 2420.265625 2790.921875 C 2436.203125 2782.238281 2449.8125 2769.695312 2459.832031 2754.476562 C 2410 2767.925781 2359.515625 2778.78125 2308.589844 2787.207031 Z M 2452.820312 2780.0625 C 2512.878906 2758.882812 2579.5 2738.621094 2628.714844 2697.003906 C 2585.160156 2715.265625 2540.539062 2730.917969 2495.296875 2744.4375 C 2484.324219 2759.660156 2469.652344 2772 2452.820312 2780.0625 Z M 2641.300781 2697.019531 C 2685.863281 2674.582031 2728.769531 2648.808594 2769.820312 2620.484375 C 2734.574219 2643.910156 2697.570312 2664.71875 2659.398438 2683.007812 C 2653.367188 2687.6875 2647.332031 2692.351562 2641.300781 2697.019531 Z M 2946.667969 2404.167969 C 2930.597656 2439.402344 2911.996094 2473.949219 2890.050781 2505.886719 C 2923.125 2487.210938 2954.082031 2465.152344 2984.03125 2441.78125 C 3008.050781 2411.972656 3029.933594 2380.304688 3047.90625 2346.496094 C 3016.011719 2368.957031 2981.441406 2386.570312 2946.667969 2404.167969 Z M 2824.40625 2581.789062 C 2875.089844 2545.230469 2923.703125 2505.066406 2966.910156 2459.851562 C 2939.179688 2485.957031 2907.53125 2507.441406 2874.714844 2526.636719 C 2859.683594 2546.597656 2842.925781 2564.984375 2824.40625 2581.789062 Z M 3068.796875 2331.257812 C 3050.394531 2364.464844 3027.90625 2394.921875 3003.238281 2423.664062 C 3051.246094 2374.820312 3096.5 2322.445312 3135.191406 2265.898438 C 3116.113281 2290.578125 3093.878906 2312.855469 3068.796875 2331.257812 Z M 1856.597656 1883.132812 C 1856.769531 1952.566406 1857.042969 2022.003906 1857.375 2091.457031 C 1896.09375 2091.671875 1934.796875 2091.960938 1973.5 2092.089844 C 2012.203125 2091.945312 2050.910156 2091.65625 2089.625 2091.457031 C 2089.957031 2022.019531 2090.230469 1952.582031 2090.40625 1883.132812 C 2051.425781 1883.433594 2012.464844 1883.722656 1973.5 1883.851562 C 1934.539062 1883.722656 1895.574219 1883.433594 1856.597656 1883.132812 Z M 1880.84375 2812.015625 C 1882.097656 2825.785156 1884.648438 2839.421875 1888.433594 2852.699219 C 1916.769531 2854.078125 1945.136719 2854.65625 1973.5 2854.539062 C 2001.867188 2854.65625 2030.246094 2854.078125 2058.570312 2852.699219 C 2062.355469 2839.421875 2064.902344 2825.785156 2066.140625 2812.015625 C 2035.273438 2813.242188 2004.386719 2813.714844 1973.488281 2813.601562 C 1942.601562 2813.730469 1911.714844 2813.242188 1880.84375 2812.015625 Z M 3330.953125 1725.078125 C 3330.953125 1725.078125 3346.449219 1720.179688 3355.980469 1713.585938 C 3362.71875 1708.933594 3367.6875 1703.9375 3371.183594 1699.832031 C 3378.371094 1649.824219 3384.027344 1599.582031 3387.554688 1549.167969 C 3386.074219 1550.203125 3359.492188 1558.929688 3347.570312 1561.492188 C 3346.273438 1616.371094 3330.953125 1725.078125 3330.953125 1725.078125 Z M 1865.308594 2564.207031 C 1866.820312 2605.320312 1868.605469 2646.433594 1871.039062 2687.5 C 1905.179688 2688.507812 1939.347656 2688.984375 1973.5 2688.925781 C 2007.65625 2688.984375 2041.808594 2688.496094 2075.960938 2687.5 C 2078.394531 2646.433594 2080.179688 2605.320312 2081.691406 2564.207031 C 2045.652344 2565.070312 2009.570312 2565.664062 1973.5 2565.707031 C 1937.433594 2565.664062 1901.363281 2565.070312 1865.308594 2564.207031 Z M 1860.527344 2370.613281 C 1861.292969 2423.390625 1862.585938 2476.152344 1864.273438 2528.898438 C 1900.65625 2530.078125 1937.085938 2530.585938 1973.5 2530.539062 C 2009.929688 2530.585938 2046.34375 2530.082031 2082.730469 2528.898438 C 2084.398438 2476.152344 2085.710938 2423.390625 2086.472656 2370.613281 C 2048.820312 2371.492188 2011.152344 2371.851562 1973.5 2371.851562 C 1935.847656 2371.851562 1898.179688 2371.492188 1860.527344 2370.613281 Z M 1872.695312 2713.148438 C 1874.035156 2741.011719 1876.195312 2768.832031 1879.175781 2796.550781 C 1910.59375 2797.734375 1942.054688 2798.238281 1973.5 2798.121094 C 2004.949219 2798.238281 2036.410156 2797.734375 2067.828125 2796.550781 C 2070.808594 2768.832031 2072.980469 2741.011719 2074.308594 2713.148438 C 2040.730469 2714.300781 2007.121094 2714.875 1973.5 2714.832031 C 1939.878906 2714.875 1906.273438 2714.300781 1872.695312 2713.148438 Z M 2512.734375 2637.734375 C 2524.699219 2599.054688 2534.9375 2559.875 2543.144531 2520.230469 C 2484.078125 2531.117188 2424.367188 2538.9375 2364.65625 2545.242188 C 2358.609375 2585.605469 2352.144531 2625.882812 2344.253906 2665.929688 C 2400.738281 2658.039062 2456.738281 2648.449219 2512.734375 2637.734375 Z M 2504.367188 2661.882812 C 2449.507812 2673.648438 2394.289062 2683.136719 2338.753906 2691.027344 C 2332.476562 2718.5625 2324.441406 2745.707031 2314.707031 2772.214844 C 2366.613281 2763.792969 2418.21875 2753.539062 2469.089844 2740.148438 C 2483.15625 2715.222656 2494.992188 2688.957031 2504.367188 2661.882812 Z M 2691.480469 2609.683594 C 2642.925781 2626.992188 2593.378906 2640.628906 2543.375 2653.011719 C 2533.136719 2679.910156 2520.363281 2705.832031 2505.316406 2730.3125 C 2551.667969 2717.078125 2597.554688 2702.230469 2641.902344 2683.265625 C 2661.601562 2661.105469 2678.261719 2636.25 2691.480469 2609.683594 Z M 3163.253906 2225.144531 C 3190.035156 2185.90625 3213.214844 2144.320312 3235.132812 2102.183594 C 3231.34375 2106.53125 3227.484375 2110.824219 3223.539062 2115.027344 C 3207.398438 2153.851562 3185.082031 2189.320312 3163.253906 2225.144531 Z M 3324.964844 1764.128906 C 3316.742188 1815.277344 3308.421875 1866.511719 3293.402344 1916.195312 C 3301.710938 1909.628906 3309.902344 1902.945312 3318.023438 1896.132812 C 3320.214844 1892.546875 3322.34375 1888.933594 3324.433594 1885.289062 C 3328.433594 1878.277344 3331.457031 1870.746094 3333.691406 1863 C 3345.8125 1820.910156 3356.683594 1778.429688 3365.800781 1735.601562 C 3354.324219 1747.757812 3340.574219 1757.691406 3325.152344 1764.058594 Z M 3283.480469 1951.460938 L 3283.292969 1951.601562 C 3270.351562 1997.007812 3256.671875 2041.921875 3236.671875 2084.804688 C 3279.839844 2038.132812 3301.582031 1967.644531 3320.285156 1908.085938 C 3319.132812 1910.089844 3317.96875 1912.089844 3316.773438 1914.078125 C 3308.148438 1928.519531 3296.65625 1941.003906 3283.480469 1951.460938 Z M 2746.152344 2475.246094 C 2693.179688 2489.933594 2639.585938 2501.511719 2585.808594 2512.785156 C 2576.535156 2551.910156 2565.835938 2590.847656 2552.316406 2628.71875 C 2603.285156 2617.503906 2653.277344 2602.726562 2703.042969 2587.046875 C 2719.414062 2550.628906 2734.183594 2513.347656 2746.152344 2475.246094 Z M 3168.105469 2008.945312 C 3130.035156 2022.839844 3091 2034.417969 3051.574219 2043.90625 C 3043.441406 2097.9375 3028.753906 2150.914062 3015.96875 2203.992188 C 3053.824219 2191.074219 3091.433594 2177.195312 3127.269531 2159.410156 C 3145.023438 2110.492188 3155.9375 2059.445312 3168.105469 2008.945312 Z M 3270.175781 1961.769531 C 3245.5 1976.804688 3219.148438 1989.675781 3192.09375 1999.914062 C 3182.058594 2050.242188 3165.988281 2098.742188 3150.511719 2147.585938 C 3176.757812 2134.253906 3201.726562 2117.605469 3224.144531 2098.585938 C 3241.828125 2053.914062 3256.039062 2007.691406 3270.175781 1961.769531 Z M 3115.507812 2193.855469 C 3080.386719 2212.515625 3043.28125 2227.0625 3005.847656 2240.425781 C 2991.390625 2285.523438 2977.769531 2330.785156 2958.804688 2374.273438 C 2995.292969 2359.28125 3029.589844 2339.699219 3063.398438 2319.4375 C 3082.117188 2278.035156 3101.683594 2237.199219 3115.507812 2193.855469 Z M 2973.996094 2251.152344 C 2926.839844 2266.617188 2878.9375 2278.484375 2830.742188 2290.148438 C 2819.238281 2338.113281 2808.238281 2386.050781 2793.121094 2433.039062 C 2839.238281 2420.886719 2884.765625 2405.175781 2928.898438 2387.132812 C 2946.40625 2342.808594 2961.527344 2297.175781 2973.996094 2251.152344 Z M 2791.40625 2298.65625 C 2734.890625 2310.652344 2677.988281 2320.300781 2620.910156 2329.230469 C 2612.90625 2379.425781 2604.28125 2429.683594 2593.019531 2479.277344 C 2647.75 2470.03125 2702.421875 2457.835938 2755.957031 2443.175781 C 2770.296875 2395.785156 2782.046875 2347.273438 2791.40625 2298.65625 Z M 3139.179688 2182.148438 C 3122 2223.375 3105.601562 2265.046875 3084.074219 2304.203125 C 3109.472656 2286.90625 3132.09375 2265.882812 3150.695312 2241.476562 C 3174.65625 2206.367188 3193.375 2168.238281 3210.25 2129.3125 C 3188.652344 2149.359375 3164.691406 2167.042969 3139.179688 2182.148438 Z M 2367.59375 1440 C 2367.679688 1403.121094 2367.621094 1366.242188 2367.4375 1329.378906 C 2293.773438 1328.601562 2220.121094 1327.808594 2146.457031 1327.535156 C 2146.457031 1365.019531 2146.257812 1402.515625 2146.15625 1440 C 2146.257812 1477.484375 2146.457031 1514.980469 2146.457031 1552.464844 C 2220.121094 1552.203125 2293.773438 1551.398438 2367.4375 1550.621094 C 2367.621094 1513.757812 2367.679688 1476.878906 2367.59375 1440 Z M 2366.976562 1605.84375 C 2293.46875 1607.15625 2219.949219 1607.601562 2146.429688 1608.132812 C 2146.359375 1681.789062 2146.113281 1755.433594 2145.550781 1829.089844 C 2218.265625 1827.574219 2290.976562 1826.050781 2363.691406 1824.78125 C 2365.203125 1751.804688 2366.269531 1678.824219 2366.976562 1605.84375 Z M 2629.304688 1440 C 2629.390625 1404.402344 2629.277344 1368.804688 2628.917969 1333.210938 C 2559.714844 1331.699219 2490.5 1330.632812 2421.285156 1329.882812 C 2421.445312 1366.589844 2421.460938 1403.292969 2421.316406 1440 C 2421.460938 1476.707031 2421.445312 1513.410156 2421.285156 1550.117188 C 2490.5 1549.367188 2559.714844 1548.300781 2628.917969 1546.789062 C 2629.277344 1511.195312 2629.390625 1475.597656 2629.304688 1440 Z M 2628.167969 1601.136719 C 2559.082031 1602.445312 2489.984375 1603.683594 2420.898438 1605.140625 C 2419.960938 1677.773438 2418.277344 1750.40625 2416.203125 1823.011719 C 2484.757812 1820.835938 2553.28125 1817.972656 2621.804688 1814.847656 C 2626.167969 1743.726562 2627.074219 1672.359375 2628.167969 1601.136719 Z M 2605.921875 2066.859375 C 2610.933594 2000.03125 2615.28125 1933.15625 2619.125 1866.253906 C 2551.105469 1871.050781 2482.769531 1873.800781 2414.605469 1875.613281 C 2412.375 1944.015625 2409.738281 2012.398438 2406.441406 2080.769531 C 2472.964844 2076.421875 2539.414062 2071.570312 2605.921875 2066.859375 Z M 2601.847656 2114.292969 C 2535.757812 2119.925781 2469.667969 2124.621094 2403.488281 2129.140625 C 2399.558594 2190.515625 2395.457031 2251.859375 2390.675781 2313.171875 C 2454.476562 2307.269531 2518.148438 2301.292969 2581.816406 2294.121094 C 2589.636719 2234.332031 2595.742188 2174.285156 2601.847656 2114.292969 Z M 2118.839844 2711.304688 C 2116.824219 2739.140625 2113.6875 2766.902344 2109.453125 2794.480469 C 2164.714844 2791.222656 2219.90625 2786.082031 2274.707031 2778.265625 C 2283.40625 2751.480469 2290.445312 2724.148438 2295.816406 2696.5 C 2237.011719 2703.398438 2177.976562 2708.265625 2118.839844 2711.304688 Z M 2096.367188 2850.4375 C 2146.328125 2846.964844 2196.078125 2840.816406 2245.492188 2832.679688 C 2256.117188 2821.464844 2264.238281 2808.015625 2269.292969 2793.339844 C 2215.484375 2801.144531 2161.316406 2806.644531 2107.050781 2809.902344 C 2105.207031 2823.8125 2101.605469 2837.460938 2096.367188 2850.4375 Z M 2352.417969 2131.777344 C 2282.382812 2135.792969 2212.230469 2138.070312 2142.109375 2139.480469 C 2141.230469 2201.746094 2140.28125 2264.011719 2138.378906 2326.261719 C 2206.011719 2324.449219 2273.773438 2321.753906 2341.214844 2316.398438 C 2345.75 2254.882812 2349.507812 2193.394531 2352.417969 2131.777344 Z M 1856.265625 1608.378906 C 1856.253906 1682.105469 1856.308594 1755.851562 1856.453125 1829.578125 C 1895.472656 1829.894531 1934.480469 1830.167969 1973.5 1830.296875 C 2012.523438 1830.152344 2051.527344 1829.878906 2090.546875 1829.578125 C 2090.691406 1755.851562 2090.75 1682.105469 2090.734375 1608.378906 C 2051.65625 1608.710938 2012.578125 1608.910156 1973.5 1609 C 1934.421875 1608.910156 1895.34375 1608.710938 1856.265625 1608.378906 Z M 3335.359375 1440 C 3335.160156 1412.8125 3334.527344 1385.640625 3333.445312 1358.480469 C 3305.859375 1355.15625 3278.140625 1352.550781 3250.40625 1350.664062 C 3251.027344 1380.441406 3251.199219 1410.222656 3251.011719 1440 C 3251.199219 1469.78125 3251.042969 1499.574219 3250.40625 1529.335938 C 3278.140625 1527.453125 3305.859375 1524.84375 3333.445312 1521.519531 C 3334.539062 1494.359375 3335.160156 1467.1875 3335.359375 1440 Z M 2300.582031 2671.214844 C 2307.523438 2630.894531 2313.726562 2590.445312 2318.753906 2549.835938 C 2255.789062 2556.015625 2192.59375 2560.046875 2129.367188 2562.421875 C 2127.308594 2603.535156 2124.441406 2644.601562 2121.101562 2685.628906 C 2181.058594 2682.648438 2240.929688 2677.9375 2300.582031 2671.214844 Z M 2323.074219 2515.378906 C 2328.875 2463.363281 2334.261719 2411.25 2338.0625 2359.050781 C 2271.152344 2363.6875 2204.183594 2367.144531 2137.144531 2369.261719 C 2135.457031 2421.992188 2133.902344 2474.742188 2131.179688 2527.429688 C 2195.257812 2524.980469 2259.199219 2520.804688 2323.074219 2515.378906 Z M 3203.972656 1799.828125 C 3164.058594 1808.625 3123.714844 1815.523438 3083.3125 1821.671875 C 3078.113281 1882.09375 3068.796875 1941.839844 3058.617188 2001.601562 C 3098.660156 1992.84375 3137.953125 1981.09375 3177.234375 1969.515625 C 3188.394531 1913.386719 3196.285156 1856.519531 3203.972656 1799.828125 Z M 3222.332031 1575.75 C 3181.8125 1578.789062 3141.238281 1580.628906 3100.691406 1583.28125 C 3097.636719 1647.273438 3093.273438 1711.195312 3087.601562 1775 C 3128.523438 1770.148438 3169.113281 1762.964844 3209.71875 1756.078125 C 3217.535156 1696.347656 3219.925781 1635.882812 3222.332031 1575.75 Z M 3331.414062 1564.386719 C 3304.246094 1568.964844 3276.800781 1572.175781 3249.269531 1573.992188 C 3247.011719 1633.117188 3240.917969 1692.171875 3234.179688 1750.9375 C 3262.230469 1745.480469 3289.945312 1738.742188 3317.40625 1730.734375 C 3323.511719 1675.425781 3328.203125 1619.957031 3331.414062 1564.386719 Z M 2851.320312 1848.46875 C 2790.253906 1854.792969 2728.785156 1859.789062 2667.492188 1863.117188 C 2663.789062 1929.671875 2659.082031 1996.042969 2652.917969 2062.410156 C 2713.234375 2057.011719 2773.121094 2048.933594 2833.175781 2041.371094 C 2841.398438 1977.351562 2846.265625 1912.796875 2851.320312 1848.46875 Z M 3064.648438 1584.734375 C 3012.3125 1587.742188 2959.929688 1589.34375 2907.574219 1591.761719 C 2905.242188 1659.875 2901.167969 1727.886719 2896.90625 1795.894531 C 2949.246094 1793 3001.441406 1786.019531 3053.433594 1779.550781 C 3060.460938 1714.851562 3062.707031 1649.75 3064.648438 1584.734375 Z M 2865.402344 1440 C 2865.457031 1406.101562 2865.269531 1372.203125 2864.839844 1338.308594 C 2802.839844 1336.839844 2740.824219 1335.800781 2678.835938 1334.1875 C 2679.066406 1369.453125 2679.066406 1404.71875 2678.851562 1440 C 2679.066406 1475.265625 2679.066406 1510.546875 2678.835938 1545.8125 C 2740.835938 1544.210938 2802.839844 1543.160156 2864.839844 1541.691406 C 2865.269531 1507.796875 2865.457031 1473.898438 2865.402344 1440 Z M 2827 2086.632812 C 2768.023438 2096.699219 2708.050781 2104.691406 2648.382812 2109.371094 C 2642.449219 2169.128906 2635.238281 2228.558594 2626.800781 2288.03125 C 2684.480469 2280.875 2742.304688 2271.28125 2799.125 2259.101562 C 2811.390625 2202.105469 2818.691406 2144.273438 2827 2086.632812 Z M 3017.941406 2051.8125 C 2968.582031 2063.460938 2918.273438 2072.722656 2868.09375 2080.179688 C 2861.253906 2137.492188 2849.921875 2194.230469 2839.152344 2250.894531 C 2887.632812 2240.378906 2936.402344 2229.351562 2983.558594 2213.855469 C 2998.113281 2160.476562 3008.191406 2106.230469 3017.941406 2051.8125 Z M 3017.941406 2051.8125 " fill-opacity="1" fill-rule="nonzero"/><path fill="#fff0f9" d="M 3195.910156 1249.214844 C 3055.148438 1263.585938 3043.484375 1275.25 3029.113281 1416.023438 C 3014.746094 1275.25 3003.082031 1263.585938 2862.320312 1249.214844 C 3003.082031 1234.84375 3014.746094 1223.179688 3029.113281 1082.40625 C 3043.5 1223.179688 3055.148438 1234.828125 3195.910156 1249.214844 Z M 2952.816406 1632.601562 C 2928.855469 1867.234375 2909.433594 1886.660156 2674.820312 1910.621094 C 2909.433594 1934.582031 2928.855469 1954.007812 2952.816406 2188.640625 C 2976.773438 1954.007812 2996.199219 1934.582031 3230.8125 1910.621094 C 2996.199219 1886.660156 2976.773438 1867.234375 2952.816406 1632.601562 Z M 2545.820312 1007.539062 C 2508.542969 1372.507812 2478.335938 1402.71875 2113.398438 1440 C 2478.335938 1477.28125 2508.542969 1507.492188 2545.820312 1872.460938 C 2583.101562 1507.492188 2613.308594 1477.28125 2978.242188 1440 C 2613.308594 1402.71875 2583.101562 1372.507812 2545.820312 1007.539062 Z M 2545.820312 1007.539062 " fill-opacity="1" fill-rule="nonzero"/></svg>