<svg xmlns="http://www.w3.org/2000/svg" xmlns:xlink="http://www.w3.org/1999/xlink" width="6144" zoomAndPan="magnify" viewBox="0 0 4608 2879.999992" height="3840" preserveAspectRatio="xMidYMid meet" version="1.0"><path fill="#a72b63" d="M 433.722656 560.121094 L 4338.144531 560.121094 C 4414.734375 560.121094 4477.390625 622.777344 4477.390625 699.367188 L 4477.390625 2740.644531 C 4477.390625 2817.238281 4414.734375 2879.890625 4338.144531 2879.890625 L 433.722656 2879.890625 C 357.132812 2879.890625 294.476562 2817.238281 294.476562 2740.644531 L 294.476562 699.257812 C 294.585938 622.777344 357.242188 560.121094 433.722656 560.121094 " fill-opacity="1" fill-rule="nonzero"/><path fill="#a72b63" d="M 460.839844 887.875 L 4311.03125 887.875 C 4402.527344 887.875 4477.390625 813.011719 4477.390625 721.511719 L 4477.390625 307.335938 C 4477.390625 215.839844 4402.527344 140.976562 4311.03125 140.976562 L 460.839844 140.976562 C 369.339844 140.976562 294.476562 215.839844 294.476562 307.335938 L 294.476562 721.511719 C 294.585938 813.011719 369.449219 887.875 460.839844 887.875 " fill-opacity="1" fill-rule="nonzero"/><path fill="#ffb9da" d="M 286.050781 437.078125 L 4192.632812 437.078125 C 4268.574219 437.078125 4330.800781 499.191406 4330.800781 575.242188 L 4330.800781 2600.964844 C 4330.800781 2676.910156 4268.683594 2739.132812 4192.632812 2739.132812 L 286.050781 2739.132812 C 210.109375 2739.132812 147.886719 2677.019531 147.886719 2600.964844 L 147.886719 575.242188 C 147.886719 499.300781 210 437.078125 286.050781 437.078125 " fill-opacity="1" fill-rule="evenodd"/><path fill="#a72b63" d="M 4192.523438 455.441406 L 286.050781 455.441406 C 253.101562 455.441406 223.179688 468.945312 201.464844 490.660156 C 179.753906 512.371094 166.25 542.296875 166.25 575.242188 L 166.25 2600.964844 C 166.25 2633.914062 179.753906 2663.839844 201.464844 2685.550781 C 223.179688 2707.265625 253.101562 2720.769531 286.050781 2720.769531 L 4192.632812 2720.769531 C 4225.582031 2720.769531 4255.503906 2707.265625 4277.21875 2685.550781 C 4298.929688 2663.839844 4312.433594 2633.914062 4312.433594 2600.964844 L 4312.433594 575.242188 C 4312.433594 542.296875 4298.929688 512.371094 4277.21875 490.660156 C 4255.394531 468.945312 4225.472656 455.441406 4192.523438 455.441406 M 286.050781 418.820312 L 4192.632812 418.820312 C 4235.628906 418.820312 4274.839844 436.429688 4303.144531 464.730469 C 4331.445312 493.035156 4349.054688 532.25 4349.054688 575.242188 L 4349.054688 2600.964844 C 4349.054688 2643.960938 4331.445312 2683.175781 4303.144531 2711.476562 C 4274.839844 2739.78125 4235.628906 2757.390625 4192.632812 2757.390625 L 286.050781 2757.390625 C 243.058594 2757.390625 203.84375 2739.78125 175.539062 2711.476562 C 147.238281 2683.175781 129.628906 2643.960938 129.628906 2600.964844 L 129.628906 575.242188 C 129.628906 532.25 147.238281 493.035156 175.539062 464.730469 C 203.84375 436.429688 242.949219 418.820312 286.050781 418.820312 Z M 286.050781 418.820312 " fill-opacity="1" fill-rule="nonzero"/><path fill="#ffdbe9" d="M 241.21875 437.078125 L 4237.355469 437.078125 C 4288.667969 437.078125 4330.691406 395.054688 4330.691406 343.742188 L 4330.691406 111.375 C 4330.691406 60.0625 4288.667969 18.039062 4237.355469 18.039062 L 241.21875 18.039062 C 189.90625 18.039062 147.886719 60.0625 147.886719 111.375 L 147.886719 343.742188 C 147.886719 395.164062 189.90625 437.078125 241.21875 437.078125 " fill-opacity="1" fill-rule="evenodd"/><path fill="#a72b63" d="M 4237.355469 455.441406 L 241.21875 455.441406 C 210.539062 455.441406 182.5625 442.910156 162.359375 422.710938 C 142.160156 402.507812 129.628906 374.53125 129.628906 343.851562 L 129.628906 111.484375 C 129.628906 80.804688 142.160156 52.824219 162.359375 32.625 C 182.5625 12.421875 210.539062 -0.109375 241.21875 -0.109375 L 4237.355469 -0.109375 C 4268.035156 -0.109375 4296.015625 12.421875 4316.214844 32.625 C 4336.417969 52.824219 4348.949219 80.804688 4348.949219 111.484375 L 4348.949219 343.851562 C 4348.949219 374.53125 4336.417969 402.507812 4316.214844 422.710938 C 4296.015625 442.910156 4268.035156 455.441406 4237.355469 455.441406 M 241.21875 418.820312 L 4237.355469 418.820312 C 4257.988281 418.820312 4276.675781 410.394531 4290.289062 396.785156 C 4303.898438 383.171875 4312.328125 364.484375 4312.328125 343.851562 L 4312.328125 111.484375 C 4312.328125 90.851562 4303.898438 72.164062 4290.289062 58.550781 C 4276.675781 44.941406 4257.988281 36.511719 4237.355469 36.511719 L 241.21875 36.511719 C 220.585938 36.511719 201.898438 44.941406 188.289062 58.550781 C 174.675781 72.164062 166.25 90.851562 166.25 111.484375 L 166.25 343.851562 C 166.25 364.484375 174.675781 383.171875 188.289062 396.785156 C 201.789062 410.394531 220.585938 418.820312 241.21875 418.820312 Z M 241.21875 418.820312 " fill-opacity="1" fill-rule="nonzero"/><path fill="#981a57" d="M 851.898438 373.125 C 733.285156 373.125 637.246094 276.980469 637.246094 158.476562 C 637.246094 277.089844 541.101562 373.125 422.597656 373.125 C 541.210938 373.125 637.246094 469.269531 637.246094 587.773438 C 637.140625 469.269531 733.285156 373.125 851.898438 373.125 " fill-opacity="1" fill-rule="evenodd"/><path fill="#a72b63" d="M 712.972656 297.289062 C 748.515625 332.832031 797.558594 354.761719 851.789062 354.761719 L 851.789062 391.382812 C 797.558594 391.382812 748.515625 413.3125 712.972656 448.851562 C 677.433594 484.394531 655.503906 533.4375 655.503906 587.667969 L 618.882812 587.667969 C 618.882812 533.4375 596.953125 484.394531 561.414062 448.851562 C 525.871094 413.3125 476.828125 391.382812 422.597656 391.382812 L 422.597656 354.761719 C 476.828125 354.761719 525.871094 332.832031 561.414062 297.289062 C 596.953125 261.75 618.882812 212.707031 618.882812 158.476562 L 655.503906 158.476562 C 655.503906 212.707031 677.433594 261.75 712.972656 297.289062 M 761.15625 373.125 C 733.285156 361.351562 708.222656 344.28125 687.15625 323.21875 C 666.089844 302.152344 649.023438 277.089844 637.246094 249.21875 C 625.472656 277.089844 608.40625 302.152344 587.339844 323.21875 C 566.273438 344.28125 541.210938 361.351562 513.339844 373.125 C 541.210938 384.898438 566.273438 401.96875 587.339844 423.035156 C 608.402344 444.097656 625.472656 469.160156 637.246094 497.03125 C 649.023438 469.160156 666.089844 444.097656 687.15625 423.035156 C 708.222656 401.96875 733.285156 384.898438 761.15625 373.125 Z M 761.15625 373.125 " fill-opacity="1" fill-rule="nonzero"/><path fill="#fff5f8" d="M 3256.363281 124.664062 C 3199.539062 124.664062 3153.414062 170.789062 3153.414062 227.613281 C 3153.414062 284.433594 3199.539062 330.5625 3256.363281 330.5625 C 3313.183594 330.5625 3359.3125 284.433594 3359.3125 227.613281 C 3359.3125 170.789062 3313.183594 124.664062 3256.363281 124.664062 " fill-opacity="1" fill-rule="evenodd"/><path fill="#a72b63" d="M 3170.589844 141.839844 C 3192.519531 119.910156 3222.875 106.300781 3256.363281 106.300781 C 3289.851562 106.300781 3320.207031 119.910156 3342.136719 141.839844 C 3364.066406 163.769531 3377.675781 194.125 3377.675781 227.613281 C 3377.675781 261.101562 3364.066406 291.457031 3342.136719 313.386719 C 3320.207031 335.316406 3289.851562 348.925781 3256.363281 348.925781 C 3222.875 348.925781 3192.519531 335.316406 3170.589844 313.386719 C 3148.660156 291.457031 3135.046875 261.101562 3135.046875 227.613281 C 3135.046875 194.125 3148.660156 163.769531 3170.589844 141.839844 M 3256.363281 143.027344 C 3233.027344 143.027344 3211.855469 152.535156 3196.515625 167.765625 C 3181.175781 183.105469 3171.777344 204.277344 3171.777344 227.613281 C 3171.777344 250.945312 3181.28125 272.121094 3196.515625 287.460938 C 3211.855469 302.800781 3233.027344 312.199219 3256.363281 312.199219 C 3279.695312 312.199219 3300.871094 302.691406 3316.210938 287.460938 C 3331.550781 272.121094 3340.949219 250.945312 3340.949219 227.613281 C 3340.949219 204.277344 3331.441406 183.105469 3316.210938 167.765625 C 3300.871094 152.425781 3279.695312 143.027344 3256.363281 143.027344 Z M 3256.363281 143.027344 " fill-opacity="1" fill-rule="nonzero"/><path fill="#fff5f8" d="M 3575.796875 124.664062 C 3518.976562 124.664062 3472.847656 170.789062 3472.847656 227.613281 C 3472.847656 284.433594 3518.976562 330.5625 3575.796875 330.5625 C 3632.621094 330.5625 3678.746094 284.433594 3678.746094 227.613281 C 3678.746094 170.789062 3632.621094 124.664062 3575.796875 124.664062 " fill-opacity="1" fill-rule="evenodd"/><path fill="#a72b63" d="M 3490.023438 141.839844 C 3511.953125 119.910156 3542.308594 106.300781 3575.796875 106.300781 C 3609.285156 106.300781 3639.640625 119.910156 3661.570312 141.839844 C 3683.5 163.769531 3697.113281 194.125 3697.113281 227.613281 C 3697.113281 261.101562 3683.5 291.457031 3661.570312 313.386719 C 3639.640625 335.316406 3609.285156 348.925781 3575.796875 348.925781 C 3542.308594 348.925781 3511.953125 335.316406 3490.023438 313.386719 C 3468.09375 291.457031 3454.484375 261.101562 3454.484375 227.613281 C 3454.484375 194.125 3468.09375 163.769531 3490.023438 141.839844 M 3575.796875 143.027344 C 3552.464844 143.027344 3531.289062 152.535156 3515.949219 167.765625 C 3500.609375 183.105469 3491.210938 204.277344 3491.210938 227.613281 C 3491.210938 250.945312 3500.71875 272.121094 3515.949219 287.460938 C 3531.289062 302.800781 3552.464844 312.199219 3575.796875 312.199219 C 3599.132812 312.199219 3620.304688 302.691406 3635.644531 287.460938 C 3650.984375 272.121094 3660.382812 250.945312 3660.382812 227.613281 C 3660.382812 204.277344 3650.875 183.105469 3635.644531 167.765625 C 3620.304688 152.425781 3599.132812 143.027344 3575.796875 143.027344 Z M 3575.796875 143.027344 " fill-opacity="1" fill-rule="nonzero"/><path fill="#fff5f8" d="M 3895.125 124.664062 C 3838.304688 124.664062 3792.175781 170.789062 3792.175781 227.613281 C 3792.175781 284.433594 3838.304688 330.5625 3895.125 330.5625 C 3951.949219 330.5625 3998.074219 284.433594 3998.074219 227.613281 C 3998.074219 170.789062 3952.054688 124.664062 3895.125 124.664062 " fill-opacity="1" fill-rule="evenodd"/><path fill="#a72b63" d="M 3809.460938 141.839844 C 3831.390625 119.910156 3861.746094 106.300781 3895.234375 106.300781 C 3928.722656 106.300781 3959.078125 119.910156 3981.007812 141.839844 C 4002.9375 163.769531 4016.546875 194.125 4016.546875 227.613281 C 4016.546875 261.101562 4002.9375 291.457031 3981.007812 313.386719 C 3959.078125 335.316406 3928.722656 348.925781 3895.234375 348.925781 C 3861.746094 348.925781 3831.390625 335.316406 3809.460938 313.386719 C 3787.53125 291.457031 3773.917969 261.101562 3773.917969 227.613281 C 3773.917969 194.125 3787.53125 163.769531 3809.460938 141.839844 M 3895.125 143.027344 C 3871.792969 143.027344 3850.617188 152.535156 3835.277344 167.765625 C 3819.9375 183.105469 3810.539062 204.277344 3810.539062 227.613281 C 3810.539062 250.945312 3820.046875 272.121094 3835.277344 287.460938 C 3850.617188 302.800781 3871.792969 312.199219 3895.125 312.199219 C 3918.460938 312.199219 3939.632812 302.691406 3954.972656 287.460938 C 3970.3125 272.121094 3979.710938 250.945312 3979.710938 227.613281 C 3979.710938 204.277344 3970.203125 183.105469 3954.972656 167.765625 C 3939.632812 152.425781 3918.566406 143.027344 3895.125 143.027344 Z M 3895.125 143.027344 " fill-opacity="1" fill-rule="nonzero"/><path fill="#981a57" d="M 4109.882812 2608.421875 C 3991.269531 2608.421875 3895.234375 2512.277344 3895.234375 2393.769531 C 3895.234375 2512.382812 3799.089844 2608.421875 3680.585938 2608.421875 C 3799.199219 2608.421875 3895.234375 2704.5625 3895.234375 2823.070312 C 3895.234375 2704.5625 3991.269531 2608.421875 4109.882812 2608.421875 " fill-opacity="1" fill-rule="evenodd"/><path fill="#a72b63" d="M 3971.070312 2532.585938 C 4006.609375 2568.125 4055.652344 2590.054688 4109.882812 2590.054688 L 4109.882812 2626.675781 C 4055.652344 2626.675781 4006.609375 2648.605469 3971.070312 2684.148438 C 3935.527344 2719.6875 3913.597656 2768.734375 3913.597656 2822.960938 L 3876.976562 2822.960938 C 3876.976562 2768.734375 3855.046875 2719.6875 3819.507812 2684.148438 C 3783.964844 2648.605469 3734.921875 2626.675781 3680.691406 2626.675781 L 3680.691406 2590.054688 C 3734.921875 2590.054688 3783.964844 2568.125 3819.507812 2532.585938 C 3855.046875 2497.042969 3876.976562 2448 3876.976562 2393.769531 L 3913.597656 2393.769531 C 3913.492188 2448 3935.527344 2497.042969 3971.070312 2532.585938 M 4019.140625 2608.421875 C 3991.269531 2596.644531 3966.207031 2579.578125 3945.140625 2558.511719 C 3924.078125 2537.445312 3907.007812 2512.382812 3895.234375 2484.511719 C 3883.460938 2512.382812 3866.390625 2537.445312 3845.324219 2558.511719 C 3824.261719 2579.578125 3799.199219 2596.644531 3771.328125 2608.421875 C 3799.199219 2620.195312 3824.261719 2637.261719 3845.324219 2658.328125 C 3866.390625 2679.394531 3883.460938 2704.457031 3895.234375 2732.328125 C 3907.007812 2704.457031 3924.078125 2679.394531 3945.140625 2658.328125 C 3966.207031 2637.261719 3991.269531 2620.195312 4019.140625 2608.421875 Z M 4019.140625 2608.421875 " fill-opacity="1" fill-rule="nonzero"/></svg>