<svg xmlns="http://www.w3.org/2000/svg" xmlns:xlink="http://www.w3.org/1999/xlink" width="6144" zoomAndPan="magnify" viewBox="0 0 4608 2879.999992" height="3840" preserveAspectRatio="xMidYMid meet" version="1.0"><path fill="#c4487c" d="M 877.621094 389.542969 L 4065.859375 389.542969 C 4147.539062 389.542969 4214.28125 456.285156 4214.28125 537.964844 L 4214.28125 2714.273438 C 4214.28125 2795.835938 4147.539062 2862.699219 4065.859375 2862.699219 L 877.621094 2862.699219 C 796.0625 2862.699219 729.199219 2795.953125 729.199219 2714.273438 L 729.199219 537.964844 C 729.199219 456.40625 795.941406 389.542969 877.621094 389.542969 " fill-opacity="1" fill-rule="evenodd"/><path fill="#c4487c" d="M 4065.738281 406.257812 L 877.621094 406.257812 C 841.347656 406.257812 808.507812 421.078125 784.5625 445.023438 C 760.613281 468.972656 745.796875 501.808594 745.796875 538.085938 L 745.796875 2714.394531 C 745.796875 2750.667969 760.613281 2783.507812 784.5625 2807.453125 C 808.507812 2831.402344 841.347656 2846.21875 877.621094 2846.21875 L 4065.859375 2846.21875 C 4102.132812 2846.21875 4134.972656 2831.402344 4158.917969 2807.453125 C 4182.867188 2783.507812 4197.683594 2750.667969 4197.683594 2714.394531 L 4197.683594 537.964844 C 4197.683594 501.691406 4182.867188 468.851562 4158.917969 444.90625 C 4134.972656 421.078125 4102.015625 406.257812 4065.738281 406.257812 M 877.621094 372.949219 L 4065.859375 372.949219 C 4111.261719 372.949219 4152.519531 391.558594 4182.390625 421.433594 C 4212.265625 451.308594 4230.878906 492.5625 4230.878906 537.964844 L 4230.878906 2714.273438 C 4230.878906 2759.679688 4212.265625 2800.933594 4182.390625 2830.808594 C 4152.519531 2860.683594 4111.261719 2879.292969 4065.859375 2879.292969 L 877.621094 2879.292969 C 832.21875 2879.292969 790.964844 2860.683594 761.089844 2830.808594 C 731.214844 2800.933594 712.601562 2759.679688 712.601562 2714.273438 L 712.601562 537.964844 C 712.601562 492.5625 731.214844 451.308594 761.089844 421.433594 C 790.964844 391.558594 832.21875 372.949219 877.621094 372.949219 Z M 877.621094 372.949219 " fill-opacity="1" fill-rule="evenodd"/><path fill="#fff5f8" d="M 728.015625 231.28125 L 3916.25 231.28125 C 3997.8125 231.28125 4064.671875 298.023438 4064.671875 379.703125 L 4064.671875 2556.011719 C 4064.671875 2637.574219 3997.929688 2704.4375 3916.25 2704.4375 L 728.015625 2704.4375 C 646.453125 2704.4375 579.589844 2637.691406 579.589844 2556.011719 L 579.589844 379.703125 C 579.710938 298.023438 646.453125 231.28125 728.015625 231.28125 " fill-opacity="1" fill-rule="evenodd"/><path fill="#c4487c" d="M 3916.25 247.878906 L 728.015625 247.878906 C 691.738281 247.878906 658.902344 262.699219 634.953125 286.644531 C 611.007812 310.589844 596.1875 343.429688 596.1875 379.703125 L 596.1875 2556.011719 C 596.1875 2592.289062 611.007812 2625.125 634.953125 2649.074219 C 658.902344 2673.019531 691.738281 2687.839844 728.015625 2687.839844 L 3916.25 2687.839844 C 3952.527344 2687.839844 3985.363281 2673.019531 4009.3125 2649.074219 C 4033.257812 2625.128906 4048.078125 2592.289062 4048.078125 2556.011719 L 4048.078125 379.703125 C 4048.078125 343.429688 4033.257812 310.589844 4009.3125 286.644531 C 3985.363281 262.699219 3952.40625 247.878906 3916.25 247.878906 M 728.015625 214.683594 L 3916.25 214.683594 C 3961.65625 214.683594 4002.910156 233.296875 4032.785156 263.171875 C 4062.65625 293.046875 4081.269531 334.300781 4081.269531 379.703125 L 4081.269531 2556.011719 C 4081.269531 2601.417969 4062.65625 2642.671875 4032.785156 2672.546875 C 4002.910156 2702.421875 3961.65625 2721.03125 3916.25 2721.03125 L 728.015625 2721.03125 C 682.609375 2721.03125 641.355469 2702.421875 611.480469 2672.546875 C 581.605469 2642.671875 562.996094 2601.417969 562.996094 2556.011719 L 562.996094 379.703125 C 562.996094 334.300781 581.605469 293.046875 611.480469 263.171875 C 641.355469 233.179688 682.609375 214.683594 728.015625 214.683594 Z M 728.015625 214.683594 " fill-opacity="1" fill-rule="evenodd"/><path fill="#fff5f8" d="M 3629.839844 16 L 3694.328125 145.691406 L 3834.6875 114.75 L 3773.519531 245.980469 L 3885.308594 336.433594 L 3744.59375 370.457031 L 3743.527344 514.257812 L 3629.246094 425.34375 L 3516.148438 514.257812 L 3514.371094 369.390625 L 3374.367188 336.433594 L 3486.511719 244.679688 L 3424.988281 114.75 L 3566.535156 145.214844 Z M 3629.839844 16 " fill-opacity="1" fill-rule="evenodd"/><path fill="#c4487c" d="M 3681.882812 151.855469 L 3629.839844 47.296875 L 3579.335938 150.433594 C 3576.847656 156.597656 3570.328125 160.152344 3563.6875 158.730469 L 3449.40625 134.191406 L 3498.605469 238.15625 C 3501.6875 243.847656 3500.5 251.199219 3495.167969 255.464844 L 3404.714844 329.441406 L 3517.335938 355.996094 C 3523.382812 357.417969 3527.886719 362.753906 3528.003906 369.273438 L 3529.425781 486.042969 L 3619.996094 414.792969 C 3624.859375 410.644531 3632.207031 410.289062 3637.542969 414.4375 L 3729.773438 486.160156 L 3730.605469 370.933594 C 3730.367188 364.53125 3734.632812 358.601562 3741.15625 357.0625 L 3854.722656 329.675781 L 3764.746094 256.886719 C 3759.886719 252.976562 3758.105469 246.21875 3760.953125 240.292969 L 3810.386719 134.429688 L 3698.121094 159.203125 C 3691.71875 160.863281 3684.964844 157.902344 3681.882812 151.855469 M 3642.285156 9.953125 L 3701.914062 129.921875 L 3831.84375 101.234375 C 3839.3125 99.574219 3846.664062 104.316406 3848.324219 111.785156 C 3849.035156 114.867188 3848.558594 117.949219 3847.375 120.558594 L 3790.707031 241.953125 L 3894.082031 325.644531 C 3900.011719 330.507812 3900.957031 339.160156 3896.097656 345.089844 C 3893.84375 347.816406 3890.761719 349.59375 3887.445312 350.066406 L 3758.226562 381.246094 L 3757.277344 514.257812 C 3757.277344 521.84375 3750.996094 528.007812 3743.40625 528.007812 C 3740.207031 528.007812 3737.363281 526.941406 3734.992188 525.042969 L 3629.128906 442.773438 L 3524.566406 524.925781 C 3518.523438 529.667969 3509.867188 528.601562 3505.125 522.554688 C 3502.992188 519.828125 3502.042969 516.507812 3502.160156 513.191406 L 3500.503906 380.179688 L 3371.046875 349.710938 C 3363.578125 347.933594 3358.957031 340.582031 3360.734375 333.113281 C 3361.445312 330.03125 3363.105469 327.425781 3365.476562 325.527344 L 3469.207031 240.648438 L 3412.300781 120.441406 C 3409.101562 113.5625 3411.945312 105.265625 3418.941406 102.0625 C 3421.785156 100.761719 3424.867188 100.40625 3427.714844 100.996094 L 3558.828125 129.210938 L 3617.390625 9.835938 C 3620.710938 2.957031 3629.007812 0.113281 3635.882812 3.550781 C 3638.730469 5.09375 3640.863281 7.34375 3642.285156 9.953125 Z M 3642.285156 9.953125 " fill-opacity="1" fill-rule="evenodd"/><path fill="#fff5f8" d="M 648.230469 2106.359375 L 712.722656 2236.050781 L 853.199219 2204.992188 L 791.910156 2336.226562 L 903.703125 2426.675781 L 762.984375 2460.699219 L 761.917969 2604.5 L 647.636719 2515.589844 L 534.542969 2604.5 L 532.765625 2459.632812 L 392.757812 2426.675781 L 504.90625 2335.039062 L 443.378906 2204.992188 L 584.925781 2235.457031 Z M 648.230469 2106.359375 " fill-opacity="1" fill-rule="evenodd"/><path fill="#c4487c" d="M 700.273438 2242.097656 L 648.230469 2137.539062 L 597.730469 2240.675781 C 595.238281 2246.839844 588.71875 2250.394531 582.082031 2248.972656 L 467.800781 2224.433594 L 517 2328.402344 C 520.082031 2334.089844 518.894531 2341.441406 513.558594 2345.707031 L 423.109375 2419.683594 L 535.730469 2446.238281 C 541.773438 2447.660156 546.28125 2452.996094 546.398438 2459.515625 L 547.820312 2576.285156 L 638.390625 2505.039062 C 643.253906 2500.886719 650.601562 2500.53125 655.9375 2504.679688 L 748.167969 2576.402344 L 748.996094 2461.175781 C 748.761719 2454.773438 753.027344 2448.84375 759.546875 2447.304688 L 873.117188 2419.917969 L 783.019531 2347.128906 C 778.160156 2343.21875 776.382812 2336.460938 779.226562 2330.535156 L 828.660156 2224.671875 L 716.394531 2249.445312 C 710.113281 2251.105469 703.355469 2248.144531 700.273438 2242.097656 M 660.679688 2100.195312 L 720.308594 2220.167969 L 850.238281 2191.476562 C 857.707031 2189.816406 865.054688 2194.558594 866.714844 2202.027344 C 867.425781 2205.109375 866.953125 2208.191406 865.765625 2210.800781 L 809.101562 2332.195312 L 912.476562 2415.890625 C 918.402344 2420.75 919.351562 2429.402344 914.492188 2435.332031 C 912.238281 2438.058594 909.15625 2439.835938 905.835938 2440.308594 L 776.617188 2471.488281 L 775.671875 2604.5 C 775.671875 2612.085938 769.386719 2618.25 761.800781 2618.25 C 758.601562 2618.25 755.753906 2617.183594 753.382812 2615.40625 L 647.519531 2533.132812 L 542.960938 2615.289062 C 536.914062 2620.03125 528.261719 2618.960938 523.519531 2612.917969 C 521.382812 2610.191406 520.4375 2606.871094 520.554688 2603.550781 L 518.894531 2470.539062 L 389.441406 2440.074219 C 381.972656 2438.292969 377.347656 2430.945312 379.125 2423.476562 C 379.839844 2420.394531 381.496094 2417.785156 383.867188 2415.890625 L 487.597656 2331.007812 L 430.695312 2210.800781 C 427.496094 2203.925781 430.339844 2195.625 437.332031 2192.425781 C 440.179688 2191.121094 443.261719 2190.765625 446.105469 2191.359375 L 577.21875 2219.574219 L 635.785156 2100.195312 C 639.101562 2093.320312 647.402344 2090.472656 654.277344 2093.910156 C 657.121094 2095.335938 659.375 2097.585938 660.679688 2100.195312 Z M 660.679688 2100.195312 " fill-opacity="1" fill-rule="evenodd"/></svg>