<svg xmlns="http://www.w3.org/2000/svg" xmlns:xlink="http://www.w3.org/1999/xlink" width="6144" zoomAndPan="magnify" viewBox="0 0 4608 2879.999992" height="3840" preserveAspectRatio="xMidYMid meet" version="1.0"><defs><clipPath id="a5cec16db6"><path d="M 3727 736 L 4366.5 736 L 4366.5 1377 L 3727 1377 Z M 3727 736 " clip-rule="nonzero"/></clipPath><clipPath id="206396e851"><path d="M 241.5 2044 L 882 2044 L 882 2684 L 241.5 2684 Z M 241.5 2044 " clip-rule="nonzero"/></clipPath></defs><path fill="#981a57" d="M 905.035156 175.449219 L 3895.316406 175.449219 C 3981.160156 175.449219 4051.347656 245.636719 4051.347656 331.480469 L 4051.347656 2723.722656 C 4051.347656 2809.566406 3981.160156 2879.753906 3895.316406 2879.753906 L 905.035156 2879.753906 C 819.191406 2879.753906 749.003906 2809.566406 749.003906 2723.722656 L 749.003906 331.480469 C 749.003906 245.636719 819.191406 175.449219 905.035156 175.449219 " fill-opacity="1" fill-rule="nonzero"/><path fill="#fff5f8" d="M 4047.511719 951.5625 C 4105.558594 951.5625 4152.632812 998.636719 4152.632812 1056.683594 C 4152.632812 1114.730469 4105.558594 1161.804688 4047.511719 1161.804688 C 3989.464844 1161.804688 3942.390625 1114.730469 3942.390625 1056.683594 C 3942.390625 998.53125 3989.464844 951.5625 4047.511719 951.5625 M 4047.511719 757.933594 C 4212.492188 757.933594 4346.15625 891.597656 4346.15625 1056.578125 C 4346.15625 1221.554688 4212.492188 1355.222656 4047.511719 1355.222656 C 3882.535156 1355.222656 3748.867188 1221.554688 3748.867188 1056.578125 C 3748.867188 891.703125 3882.535156 757.933594 4047.511719 757.933594 Z M 4047.511719 757.933594 " fill-opacity="1" fill-rule="evenodd"/><g clip-path="url(#a5cec16db6)"><path fill="#a72b63" d="M 4106.835938 997.144531 C 4091.605469 982.023438 4070.625 972.648438 4047.511719 972.648438 C 4024.292969 972.648438 4003.3125 982.023438 3988.082031 997.144531 C 3972.957031 1012.269531 3963.585938 1033.359375 3963.585938 1056.578125 C 3963.585938 1079.792969 3972.957031 1100.777344 3988.082031 1116.007812 C 4003.207031 1131.132812 4024.292969 1140.503906 4047.511719 1140.503906 C 4070.625 1140.503906 4091.710938 1131.132812 4106.835938 1115.902344 C 4121.960938 1100.777344 4131.441406 1079.796875 4131.441406 1056.578125 C 4131.332031 1033.359375 4121.960938 1012.375 4106.835938 997.144531 M 4047.511719 930.367188 C 4082.339844 930.367188 4113.972656 944.53125 4136.765625 967.324219 C 4159.558594 990.222656 4173.722656 1021.75 4173.722656 1056.578125 C 4173.722656 1091.402344 4159.558594 1122.929688 4136.765625 1145.722656 C 4113.972656 1168.621094 4082.339844 1182.785156 4047.511719 1182.785156 C 4012.683594 1182.785156 3981.160156 1168.621094 3958.367188 1145.828125 C 3935.46875 1122.929688 3921.300781 1091.402344 3921.300781 1056.578125 C 3921.300781 1021.75 3935.46875 990.222656 3958.261719 967.429688 C 3981.160156 944.53125 4012.683594 930.367188 4047.511719 930.367188 Z M 4243.699219 860.390625 C 4193.535156 810.226562 4124.089844 779.125 4047.40625 779.125 C 3970.828125 779.125 3901.386719 810.226562 3851.222656 860.390625 C 3800.949219 910.554688 3769.957031 979.890625 3769.957031 1056.578125 C 3769.957031 1133.261719 3800.949219 1202.597656 3851.113281 1252.761719 C 3901.386719 1302.925781 3970.828125 1334.027344 4047.40625 1334.027344 C 4124.089844 1334.027344 4193.425781 1302.925781 4243.589844 1252.867188 C 4293.863281 1202.597656 4324.855469 1133.261719 4324.855469 1056.578125 C 4324.960938 979.890625 4293.863281 910.554688 4243.699219 860.390625 Z M 4047.511719 736.738281 C 4135.699219 736.738281 4215.6875 772.523438 4273.519531 830.460938 C 4331.460938 888.402344 4367.246094 968.390625 4367.246094 1056.578125 C 4367.246094 1144.761719 4331.460938 1224.75 4273.519531 1282.582031 C 4215.578125 1340.523438 4135.59375 1376.308594 4047.40625 1376.308594 C 3959.113281 1376.308594 3879.125 1340.523438 3821.292969 1282.582031 C 3763.460938 1224.644531 3727.566406 1144.65625 3727.566406 1056.46875 C 3727.566406 968.28125 3763.351562 888.296875 3821.292969 830.355469 C 3879.230469 772.628906 3959.113281 736.738281 4047.511719 736.738281 Z M 4047.511719 736.738281 " fill-opacity="1" fill-rule="nonzero"/></g><path fill="#fff5f8" d="M 561.765625 2258.929688 C 619.8125 2258.929688 666.886719 2306.003906 666.886719 2364.050781 C 666.886719 2422.097656 619.8125 2469.171875 561.765625 2469.171875 C 503.71875 2469.171875 456.644531 2422.097656 456.644531 2364.050781 C 456.75 2305.898438 503.71875 2258.929688 561.765625 2258.929688 M 561.765625 2065.300781 C 726.742188 2065.300781 860.410156 2198.964844 860.410156 2363.945312 C 860.410156 2528.921875 726.742188 2662.589844 561.765625 2662.589844 C 396.785156 2662.589844 263.121094 2528.921875 263.121094 2363.945312 C 263.121094 2199.074219 396.894531 2065.300781 561.765625 2065.300781 Z M 561.765625 2065.300781 " fill-opacity="1" fill-rule="evenodd"/><g clip-path="url(#206396e851)"><path fill="#981a57" d="M 621.195312 2304.621094 C 605.964844 2289.496094 584.984375 2280.125 561.871094 2280.125 C 538.652344 2280.125 517.671875 2289.496094 502.441406 2304.621094 C 487.316406 2319.746094 477.945312 2340.832031 477.945312 2364.050781 C 477.945312 2387.269531 487.316406 2408.25 502.441406 2423.480469 C 517.566406 2438.605469 538.652344 2447.976562 561.871094 2447.976562 C 584.984375 2447.976562 606.070312 2438.605469 621.195312 2423.375 C 636.320312 2408.25 645.800781 2387.269531 645.800781 2364.050781 C 645.800781 2340.832031 636.320312 2319.746094 621.195312 2304.621094 M 561.765625 2237.734375 C 596.59375 2237.734375 628.226562 2251.898438 651.019531 2274.691406 C 673.808594 2297.589844 687.976562 2329.117188 687.976562 2363.945312 C 687.976562 2398.773438 673.808594 2430.296875 651.019531 2453.089844 C 628.226562 2475.988281 596.59375 2490.15625 561.765625 2490.15625 C 526.9375 2490.15625 495.410156 2475.988281 472.621094 2453.195312 C 449.71875 2430.296875 435.554688 2398.773438 435.554688 2363.945312 C 435.554688 2329.117188 449.71875 2297.589844 472.511719 2274.796875 C 495.410156 2251.898438 527.042969 2237.734375 561.765625 2237.734375 Z M 758.058594 2167.757812 C 707.890625 2117.59375 638.449219 2086.496094 561.871094 2086.496094 C 485.292969 2086.496094 415.851562 2117.59375 365.6875 2167.757812 C 315.414062 2217.925781 284.421875 2287.261719 284.421875 2363.945312 C 284.421875 2440.628906 315.523438 2509.964844 365.582031 2560.128906 C 415.851562 2610.292969 485.292969 2641.394531 561.871094 2641.394531 C 638.554688 2641.394531 707.890625 2610.292969 758.058594 2560.238281 C 808.328125 2509.964844 839.320312 2440.628906 839.320312 2363.945312 C 839.214844 2287.367188 808.222656 2217.925781 758.058594 2167.757812 Z M 561.765625 2044.210938 C 649.953125 2044.210938 729.9375 2079.996094 787.773438 2137.9375 C 845.710938 2195.878906 881.496094 2275.863281 881.496094 2364.050781 C 881.496094 2452.238281 845.710938 2532.226562 787.773438 2590.058594 C 729.832031 2647.996094 649.847656 2683.785156 561.660156 2683.785156 C 473.363281 2683.785156 393.378906 2647.996094 335.546875 2590.058594 C 277.710938 2532.117188 241.820312 2452.132812 241.820312 2363.945312 C 241.820312 2275.757812 277.605469 2195.769531 335.546875 2137.832031 C 393.484375 2079.996094 473.472656 2044.210938 561.765625 2044.210938 Z M 561.765625 2044.210938 " fill-opacity="1" fill-rule="nonzero"/></g><path fill="#ffb9da" d="M 749.960938 20.375 L 3740.242188 20.375 C 3826.085938 20.375 3896.273438 90.5625 3896.273438 176.40625 L 3896.273438 2568.648438 C 3896.273438 2654.496094 3826.085938 2724.683594 3740.242188 2724.683594 L 749.960938 2724.683594 C 664.117188 2724.683594 593.929688 2654.496094 593.929688 2568.648438 L 593.929688 176.40625 C 593.929688 90.667969 664.222656 20.375 749.960938 20.375 " fill-opacity="1" fill-rule="evenodd"/><path fill="#fff5f8" d="M 593.929688 404.011719 L 3896.273438 404.011719 L 3896.273438 176.511719 C 3896.273438 90.667969 3826.085938 20.480469 3740.242188 20.480469 L 749.960938 20.480469 C 664.117188 20.480469 593.929688 90.667969 593.929688 176.511719 Z M 593.929688 404.011719 " fill-opacity="1" fill-rule="evenodd"/><path fill="#981a57" d="M 3740.242188 40.289062 L 749.960938 40.289062 C 712.578125 40.289062 678.496094 55.628906 653.894531 80.335938 C 629.183594 105.046875 613.847656 139.023438 613.847656 176.40625 L 613.847656 2568.648438 C 613.847656 2606.035156 629.183594 2640.117188 653.894531 2664.71875 C 678.601562 2689.429688 712.578125 2704.765625 749.960938 2704.765625 L 3740.242188 2704.765625 C 3777.625 2704.765625 3811.707031 2689.429688 3836.308594 2664.71875 C 3861.019531 2640.007812 3876.355469 2606.035156 3876.355469 2568.648438 L 3876.355469 176.40625 C 3876.355469 139.023438 3861.019531 104.941406 3836.308594 80.335938 C 3811.707031 55.628906 3777.625 40.289062 3740.242188 40.289062 M 749.960938 0.5625 L 3740.242188 0.5625 C 3788.59375 0.5625 3832.582031 20.375 3864.535156 52.21875 C 3896.378906 84.066406 3916.191406 128.050781 3916.191406 176.511719 L 3916.191406 2568.757812 C 3916.191406 2617.109375 3896.378906 2661.097656 3864.535156 2693.050781 C 3832.6875 2724.894531 3788.703125 2744.707031 3740.242188 2744.707031 L 749.960938 2744.707031 C 701.609375 2744.707031 657.621094 2724.894531 625.667969 2693.050781 C 593.824219 2661.203125 574.011719 2617.21875 574.011719 2568.757812 L 574.011719 176.40625 C 574.011719 128.050781 593.824219 84.066406 625.667969 52.113281 C 657.621094 20.265625 701.609375 0.5625 749.960938 0.5625 Z M 749.960938 0.5625 " fill-opacity="1" fill-rule="nonzero"/><path fill="#981a57" d="M 593.929688 384.09375 L 3896.273438 384.09375 L 3896.273438 423.925781 L 593.929688 423.925781 Z M 593.929688 384.09375 " fill-opacity="1" fill-rule="nonzero"/><path fill="#fff5f8" d="M 1402.742188 127.945312 C 1449.285156 127.945312 1486.988281 165.648438 1486.988281 212.191406 C 1486.988281 258.734375 1449.285156 296.4375 1402.742188 296.4375 C 1356.199219 296.4375 1318.496094 258.734375 1318.496094 212.191406 C 1318.496094 165.648438 1356.199219 127.945312 1402.742188 127.945312 " fill-opacity="1" fill-rule="evenodd"/><path fill="#981a57" d="M 1448.21875 166.714844 C 1436.609375 155.105469 1420.527344 147.863281 1402.742188 147.863281 C 1384.953125 147.863281 1368.871094 155.105469 1357.261719 166.714844 C 1345.652344 178.324219 1338.410156 194.40625 1338.410156 212.191406 C 1338.410156 229.980469 1345.652344 246.0625 1357.261719 257.671875 C 1368.871094 269.28125 1384.953125 276.523438 1402.742188 276.523438 C 1420.527344 276.523438 1436.609375 269.28125 1448.21875 257.671875 C 1459.828125 246.0625 1467.070312 229.980469 1467.070312 212.191406 C 1467.070312 194.40625 1459.828125 178.324219 1448.21875 166.714844 M 1402.742188 108.027344 C 1431.496094 108.027344 1457.484375 119.636719 1476.335938 138.488281 C 1495.1875 157.339844 1506.796875 183.328125 1506.796875 212.085938 C 1506.796875 240.84375 1495.1875 266.828125 1476.335938 285.683594 C 1457.484375 304.535156 1431.496094 316.144531 1402.742188 316.144531 C 1373.984375 316.144531 1347.996094 304.535156 1329.144531 285.683594 C 1310.292969 266.832031 1298.683594 240.84375 1298.683594 212.085938 C 1298.683594 183.328125 1310.292969 157.339844 1329.144531 138.488281 C 1347.890625 119.746094 1373.984375 108.027344 1402.742188 108.027344 Z M 1402.742188 108.027344 " fill-opacity="1" fill-rule="nonzero"/><path fill="#fff5f8" d="M 1113.789062 127.945312 C 1160.332031 127.945312 1198.035156 165.648438 1198.035156 212.191406 C 1198.035156 258.734375 1160.332031 296.4375 1113.789062 296.4375 C 1067.246094 296.4375 1029.542969 258.734375 1029.542969 212.191406 C 1029.542969 165.648438 1067.246094 127.945312 1113.789062 127.945312 " fill-opacity="1" fill-rule="evenodd"/><path fill="#981a57" d="M 1159.265625 166.714844 C 1147.65625 155.105469 1131.574219 147.863281 1113.789062 147.863281 C 1096.003906 147.863281 1079.917969 155.105469 1068.308594 166.714844 C 1056.703125 178.324219 1049.457031 194.40625 1049.457031 212.191406 C 1049.457031 229.980469 1056.703125 246.0625 1068.308594 257.671875 C 1079.917969 269.28125 1096.003906 276.523438 1113.789062 276.523438 C 1131.574219 276.523438 1147.65625 269.28125 1159.265625 257.671875 C 1170.875 246.0625 1178.117188 229.980469 1178.117188 212.191406 C 1178.117188 194.40625 1170.875 178.324219 1159.265625 166.714844 M 1113.789062 108.027344 C 1142.546875 108.027344 1168.535156 119.636719 1187.386719 138.488281 C 1206.238281 157.339844 1217.847656 183.328125 1217.847656 212.085938 C 1217.847656 240.84375 1206.238281 266.828125 1187.386719 285.683594 C 1168.535156 304.535156 1142.546875 316.144531 1113.789062 316.144531 C 1085.03125 316.144531 1059.042969 304.535156 1040.191406 285.683594 C 1021.339844 266.832031 1009.730469 240.84375 1009.730469 212.085938 C 1009.730469 183.328125 1021.339844 157.339844 1040.191406 138.488281 C 1058.9375 119.746094 1085.03125 108.027344 1113.789062 108.027344 Z M 1113.789062 108.027344 " fill-opacity="1" fill-rule="nonzero"/><path fill="#fff5f8" d="M 824.835938 127.945312 C 871.378906 127.945312 909.082031 165.648438 909.082031 212.191406 C 909.082031 258.734375 871.378906 296.4375 824.835938 296.4375 C 778.292969 296.4375 740.589844 258.734375 740.589844 212.191406 C 740.589844 165.648438 778.292969 127.945312 824.835938 127.945312 " fill-opacity="1" fill-rule="evenodd"/><path fill="#981a57" d="M 870.316406 166.714844 C 858.707031 155.105469 842.625 147.863281 824.835938 147.863281 C 807.050781 147.863281 790.96875 155.105469 779.359375 166.714844 C 767.75 178.324219 760.507812 194.40625 760.507812 212.191406 C 760.507812 229.980469 767.75 246.0625 779.359375 257.671875 C 790.96875 269.28125 807.050781 276.523438 824.835938 276.523438 C 842.625 276.523438 858.707031 269.28125 870.316406 257.671875 C 881.925781 246.0625 889.167969 229.980469 889.167969 212.191406 C 889.167969 194.40625 881.925781 178.324219 870.316406 166.714844 M 824.835938 108.027344 C 853.59375 108.027344 879.582031 119.636719 898.433594 138.488281 C 917.285156 157.339844 928.894531 183.328125 928.894531 212.085938 C 928.894531 240.84375 917.285156 266.828125 898.433594 285.683594 C 879.582031 304.535156 853.59375 316.144531 824.835938 316.144531 C 796.078125 316.144531 770.09375 304.535156 751.242188 285.683594 C 732.390625 266.832031 720.78125 240.84375 720.78125 212.085938 C 720.78125 183.328125 732.386719 157.339844 751.242188 138.488281 C 769.984375 119.746094 796.078125 108.027344 824.835938 108.027344 Z M 824.835938 108.027344 " fill-opacity="1" fill-rule="nonzero"/></svg>