<svg xmlns="http://www.w3.org/2000/svg" xmlns:xlink="http://www.w3.org/1999/xlink" width="6144" zoomAndPan="magnify" viewBox="0 0 4608 2879.999992" height="3840" preserveAspectRatio="xMidYMid meet" version="1.0"><path fill="#a72b63" d="M 3816.722656 61.203125 L 978.558594 61.203125 L 790.59375 249.167969 L 992.695312 2249.480469 L 1417.917969 2249.480469 L 1417.917969 2249.578125 C 1418.789062 2249.578125 1419.660156 2249.578125 1420.53125 2249.671875 L 3628.660156 2454.585938 L 3816.722656 2266.523438 Z M 966.453125 3.097656 L 3845.773438 3.097656 C 3861.847656 3.097656 3874.824219 16.074219 3874.824219 32.152344 L 3874.824219 2278.53125 C 3874.824219 2286.570312 3871.53125 2293.929688 3866.207031 2299.15625 L 3660.230469 2505.136719 C 3653.257812 2512.109375 3643.574219 2514.820312 3634.566406 2513.171875 L 1417.820312 2307.484375 L 966.546875 2307.484375 C 950.765625 2307.484375 937.882812 2294.800781 937.496094 2279.113281 L 731.519531 241.128906 C 730.648438 232.125 733.941406 223.699219 739.847656 217.792969 L 739.75 217.695312 L 945.921875 11.523438 C 951.636719 6.003906 959.09375 3.097656 966.453125 3.097656 Z M 966.453125 3.097656 " fill-opacity="1" fill-rule="nonzero"/><path fill="#fff5f8" d="M 760.378906 238.320312 L 3639.699219 238.320312 L 3639.699219 2484.703125 L 1584.964844 2484.703125 L 1583.996094 2851.335938 L 1211.746094 2484.703125 L 760.378906 2484.703125 Z M 760.378906 238.320312 " fill-opacity="1" fill-rule="evenodd"/><path fill="#a72b63" d="M 3610.648438 267.375 L 789.332031 267.375 L 789.332031 2455.648438 L 1211.746094 2455.648438 L 1211.746094 2455.746094 C 1219.105469 2455.746094 1226.367188 2458.554688 1232.082031 2464.074219 L 1555.234375 2782.484375 L 1556.007812 2487.21875 C 1555.914062 2486.445312 1555.914062 2485.574219 1555.914062 2484.703125 C 1555.914062 2468.625 1568.890625 2455.648438 1584.964844 2455.648438 L 3610.648438 2455.648438 Z M 760.378906 209.269531 L 3639.699219 209.269531 C 3655.773438 209.269531 3668.75 222.246094 3668.75 238.320312 L 3668.75 2484.703125 C 3668.75 2500.777344 3655.773438 2513.753906 3639.699219 2513.753906 L 1613.824219 2513.753906 L 1612.949219 2851.433594 C 1612.949219 2867.410156 1599.972656 2880.386719 1583.996094 2880.386719 C 1576.054688 2880.386719 1568.890625 2877.191406 1563.757812 2872.058594 L 1200.027344 2513.753906 L 760.378906 2513.753906 C 744.300781 2513.753906 731.328125 2500.777344 731.328125 2484.703125 L 731.328125 238.320312 C 731.328125 222.246094 744.300781 209.269531 760.378906 209.269531 Z M 760.378906 209.269531 " fill-opacity="1" fill-rule="nonzero"/><path fill="#a72b63" d="M 3660.230469 258.851562 C 3648.898438 270.183594 3630.5 270.183594 3619.171875 258.851562 C 3607.839844 247.519531 3607.839844 229.121094 3619.171875 217.792969 L 3825.339844 11.621094 C 3836.671875 0.289062 3855.070312 0.289062 3866.402344 11.621094 C 3877.730469 22.949219 3877.730469 41.351562 3866.402344 52.679688 Z M 3660.230469 258.851562 " fill-opacity="1" fill-rule="nonzero"/><path fill="#a72b63" d="M 3660.230469 544.042969 C 3648.898438 555.375 3630.5 555.375 3619.171875 544.042969 C 3607.839844 532.714844 3607.839844 514.3125 3619.171875 502.984375 L 3825.339844 296.8125 C 3836.671875 285.480469 3855.070312 285.480469 3866.402344 296.8125 C 3877.730469 308.140625 3877.730469 326.542969 3866.402344 337.871094 Z M 3660.230469 544.042969 " fill-opacity="1" fill-rule="nonzero"/><path fill="#a72b63" d="M 3660.230469 829.332031 C 3648.898438 840.660156 3630.5 840.660156 3619.171875 829.332031 C 3607.839844 818 3607.839844 799.601562 3619.171875 788.273438 L 3825.339844 582.101562 C 3836.671875 570.769531 3855.070312 570.769531 3866.402344 582.101562 C 3877.730469 593.429688 3877.730469 611.832031 3866.402344 623.160156 Z M 3660.230469 829.332031 " fill-opacity="1" fill-rule="nonzero"/><path fill="#a72b63" d="M 3660.230469 1114.523438 C 3648.898438 1125.851562 3630.5 1125.851562 3619.171875 1114.523438 C 3607.839844 1103.191406 3607.839844 1084.792969 3619.171875 1073.464844 L 3825.339844 867.292969 C 3836.671875 855.960938 3855.070312 855.960938 3866.402344 867.292969 C 3877.730469 878.621094 3877.730469 897.023438 3866.402344 908.351562 Z M 3660.230469 1114.523438 " fill-opacity="1" fill-rule="nonzero"/><path fill="#a72b63" d="M 3660.230469 1399.714844 C 3648.898438 1411.046875 3630.5 1411.046875 3619.171875 1399.714844 C 3607.839844 1388.382812 3607.839844 1369.984375 3619.171875 1358.65625 L 3825.339844 1152.484375 C 3836.671875 1141.152344 3855.070312 1141.152344 3866.402344 1152.484375 C 3877.730469 1163.8125 3877.730469 1182.214844 3866.402344 1193.542969 Z M 3660.230469 1399.714844 " fill-opacity="1" fill-rule="nonzero"/><path fill="#a72b63" d="M 3660.230469 1685.003906 C 3648.898438 1696.332031 3630.5 1696.332031 3619.171875 1685.003906 C 3607.839844 1673.671875 3607.839844 1655.273438 3619.171875 1643.945312 L 3825.339844 1437.773438 C 3836.671875 1426.441406 3855.070312 1426.441406 3866.402344 1437.773438 C 3877.730469 1449.101562 3877.730469 1467.503906 3866.402344 1478.832031 Z M 3660.230469 1685.003906 " fill-opacity="1" fill-rule="nonzero"/><path fill="#a72b63" d="M 3660.230469 1970.195312 C 3648.898438 1981.527344 3630.5 1981.527344 3619.171875 1970.195312 C 3607.839844 1958.863281 3607.839844 1940.464844 3619.171875 1929.136719 L 3825.339844 1722.964844 C 3836.671875 1711.632812 3855.070312 1711.632812 3866.402344 1722.964844 C 3877.730469 1734.292969 3877.730469 1752.695312 3866.402344 1764.023438 Z M 3660.230469 1970.195312 " fill-opacity="1" fill-rule="nonzero"/><path fill="#a72b63" d="M 3660.230469 2255.386719 C 3648.898438 2266.71875 3630.5 2266.71875 3619.171875 2255.386719 C 3607.839844 2244.054688 3607.839844 2225.65625 3619.171875 2214.328125 L 3825.339844 2008.15625 C 3836.671875 1996.824219 3855.070312 1996.824219 3866.402344 2008.15625 C 3877.730469 2019.484375 3877.730469 2037.886719 3866.402344 2049.214844 Z M 3660.230469 2255.386719 " fill-opacity="1" fill-rule="nonzero"/></svg>